<?xml version="1.0" encoding="UTF-8"?>
<svg id="Layer_1" xmlns="http://www.w3.org/2000/svg" xmlns:xlink="http://www.w3.org/1999/xlink" version="1.1" viewBox="0 0 464.8 76.7">
  <!-- Generator: Adobe Illustrator 29.2.0, SVG Export Plug-In . SVG Version: 2.1.0 Build 108)  -->
  <defs>
    <style>
      .st0 {
        fill: #fff;
      }
    </style>
  </defs>
  <path class="st0" d="M62.8,38.2c0-.8.2-1.5.7-2,.5-.6,1.1-.8,1.8-.8h26.3c.5,0,1-.2,1.4-.7.4-.4.6-1,.6-1.6s-.2-1.1-.6-1.5c-.4-.4-.8-.6-1.4-.6h-32.3c-.7,0-1.3-.3-1.8-.8-.5-.6-.7-1.2-.7-2s.2-1.5.7-2c.5-.6,1.1-.8,1.8-.8h32.1c1,0,1.9.2,2.8.6s1.6.9,2.3,1.7c.6.7,1.1,1.5,1.5,2.5.4.9.6,2,.6,3.1s-.2,1.9-.5,2.8c-.3.9-.7,1.6-1.2,2.3,1.1,1.5,1.7,3.2,1.7,5.1s-.2,2.1-.6,3.1c-.4.9-.9,1.8-1.5,2.5s-1.4,1.3-2.3,1.7-1.8.6-2.8.6h-32.1c-.7,0-1.3-.3-1.8-.8-.5-.6-.7-1.2-.7-2s.2-1.5.7-2c.5-.6,1.1-.8,1.8-.8h32.4c.5,0,1-.2,1.4-.6.4-.4.6-.9.6-1.5s-.2-1.2-.6-1.6c-.4-.4-.8-.7-1.4-.7h-26.4c-.7,0-1.3-.3-1.8-.8-.5-1-.7-1.7-.7-2.4Z"/>
  <path class="st0" d="M108.1,40.4c-.8-.4-1.6-1-2.2-1.7s-1.1-1.5-1.5-2.5c-.4-.9-.6-2-.6-3.1s.2-2.1.6-3.1c.4-.9.9-1.8,1.5-2.5s1.4-1.3,2.2-1.7c.8-.4,1.8-.6,2.8-.6h32.1c.7,0,1.3.3,1.8.8.5.6.7,1.2.7,2s-.2,1.5-.7,2c-.5.6-1.1.8-1.8.8h-32.3c-.5,0-1,.2-1.4.6s-.6.9-.6,1.6.2,1.1.6,1.5.9.7,1.4.7h29.3c1,0,1.9.2,2.8.6.9.4,1.6,1,2.3,1.7.6.7,1.1,1.6,1.5,2.5.4,1,.6,2,.6,3.1s-.2,2.1-.6,3.1c-.4.9-.9,1.8-1.5,2.5s-1.4,1.3-2.3,1.7c-.9.4-1.8.6-2.8.6h-32.1c-.7,0-1.3-.3-1.8-.8-.5-.6-.7-1.2-.7-2s.2-1.5.7-2c.5-.6,1.1-.8,1.8-.8h32.3c.5,0,1-.2,1.4-.6.4-.4.6-.9.6-1.5s-.2-1.2-.6-1.6c-.4-.4-.8-.7-1.4-.7h-29.4c-1,0-1.9-.2-2.7-.6Z"/>
  <path class="st0" d="M169.4,50.5c-.9-.4-1.7-1-2.3-1.7-.7-.7-1.2-1.5-1.6-2.5-.4-.9-.6-2-.6-3.1v-15.1c0-.8.2-1.5.7-2,.5-.6,1.1-.8,1.8-.8s1.3.3,1.8.8c.5.6.8,1.2.8,2v15.1c0,.6.2,1.1.6,1.5.4.4.9.7,1.4.7h31.8c.7,0,1.3.3,1.8.8.5.6.7,1.2.7,2s-.2,1.5-.7,2c-.5.6-1.1.8-1.8.8h-31.6c-1,0-2,0-2.8-.5Z"/>
  <path class="st0" d="M216,50.3c-.5.6-1.1.8-1.8.8s-1.3-.3-1.8-.8c-.5-.6-.7-1.2-.7-2v-20.2c0-.8.2-1.5.7-2,.5-.6,1.1-.8,1.8-.8s1.3.3,1.8.8c.5.6.7,1.2.7,2v20.2c0,.7-.2,1.4-.7,2Z"/>
  <path class="st0" d="M236,38.2c0-.8.2-1.5.7-2,.5-.6,1.1-.8,1.8-.8h20.3c.9,0,1.7.2,2.5.6.8.4,1.5.9,2,1.5.6.7,1,1.4,1.4,2.3.3.9.5,1.8.5,2.8v1.3c0,1-.2,1.9-.5,2.8-.3.9-.8,1.7-1.4,2.3-.6.7-1.3,1.2-2,1.5-.8.4-1.6.6-2.5.6h-27.6c-1.4,0-2.7-.4-3.9-1.2-1.1-.8-2.1-1.8-2.9-3.1-.8-1.2-1.4-2.6-1.8-4.2-.4-1.5-.6-3-.6-4.5s.2-3,.7-4.5c.4-1.5,1.1-2.9,1.9-4.2.8-1.2,1.9-2.3,3.1-3.1,1.2-.8,2.6-1.2,4.1-1.2h30.9c.7,0,1.3.3,1.8.8.5.6.7,1.2.7,2s-.2,1.5-.7,2c-.5.6-1.1.8-1.8.8h-29.7c-1.2,0-2.2.2-3,.7s-1.4,1.1-1.8,1.8c-.4.7-.7,1.5-.9,2.3-.2.9-.2,1.6-.2,2.3s.1,1.5.2,2.3c.2.9.5,1.6.9,2.3s1,1.3,1.8,1.8,1.8.7,3,.7h25.7c.4,0,.8-.2,1.1-.7.3-.4.5-.9.5-1.5s-.2-1.1-.5-1.5-.7-.7-1.2-.7h-20.1c-.7,0-1.3-.3-1.8-.8-.4,0-.7-.8-.7-1.5Z"/>
  <path class="st0" d="M311.3,50.3c-.5.6-1.1.8-1.8.8s-1.3-.3-1.8-.8c-.5-.6-.7-1.2-.7-2v-7.3h-31.3v7.2c0,.8-.2,1.5-.7,2-.5.6-1.1.8-1.8.8s-1.3-.3-1.8-.8c-.5-.6-.7-1.2-.7-2v-20.1c0-.8.2-1.5.7-2,.5-.6,1.1-.8,1.8-.8s1.3.3,1.8.8c.5.6.7,1.2.7,2v7.2h31.3v-7.2c0-.8.2-1.5.7-2,.5-.6,1.1-.8,1.8-.8s1.3.3,1.8.8c.5.6.7,1.2.7,2v20.2c0,.7-.2,1.4-.7,2Z"/>
  <path class="st0" d="M358.2,26.1c.5.6.7,1.2.7,2s-.2,1.5-.7,2c-.5.6-1.1.8-1.8.8h-15.7v17.3c0,.8-.2,1.5-.7,2-.5.6-1.1.8-1.8.8s-1.3-.3-1.8-.8c-.5-.6-.7-1.2-.7-2v-17.3h-15.9c-.6-.1-1.2-.4-1.6-.9-.5-.5-.7-1.2-.7-1.9s.2-1.5.7-2c.5-.6,1.1-.8,1.8-.8h36.5c.6-.1,1.2.2,1.7.8Z"/>
  <path class="st0" d="M368.5,50.3c-.5.6-1.1.8-1.8.8s-1.3-.3-1.8-.8c-.5-.6-.7-1.2-.7-2v-20.2c0-.8.2-1.5.7-2,.5-.6,1.1-.8,1.8-.8s1.3.3,1.8.8c.5.6.7,1.2.7,2v20.2c0,.7-.2,1.4-.7,2Z"/>
  <path class="st0" d="M411.4,26.1c.5-.6,1.1-.8,1.8-.8s1.3.3,1.8.8c.5.6.7,1.2.7,2v17.3c0,1.6-.5,3-1.5,4.1s-2.2,1.7-3.6,1.7-1,0-1.5-.2c-.5-.2-.9-.4-1.3-.7l-24.3-16.6c-.7-.4-1.2-.8-1.7-1-.4-.3-.8-.4-1.1-.4-.5,0-.9.4-1,1.1-.1.8-.2,1.8-.2,3.3v11.7c0,.8-.2,1.5-.7,2-.5.6-1.1.8-1.8.8s-1.3-.3-1.8-.8c-.5-.6-.7-1.2-.7-2v-17.4c0-1.6.5-3,1.5-4.1s2.2-1.7,3.6-1.7,1,.1,1.5.2c.5.2.9.4,1.3.7l24.3,16.6c.7.4,1.2.8,1.7,1,.4.3.8.4,1.1.4.5,0,.9-.4,1-1.1.1-.8.2-1.8.2-3.3v-11.6c0-.8.2-1.5.7-2Z"/>
  <path class="st0" d="M435.1,38.2c0-.8.2-1.5.7-2,.5-.6,1.1-.8,1.8-.8h20.3c.9,0,1.7.2,2.5.6.8.4,1.5.9,2,1.5.6.7,1,1.4,1.4,2.3.3.9.5,1.8.5,2.8v1.3c0,1-.2,1.9-.5,2.8-.3.9-.8,1.7-1.4,2.3-.6.7-1.3,1.2-2,1.5-.8.4-1.6.6-2.5.6h-27.6c-1.4,0-2.7-.4-3.9-1.2-1.1-.8-2.1-1.8-2.9-3.1-.8-1.2-1.4-2.6-1.8-4.2-.4-1.5-.6-3-.6-4.5s.2-3,.7-4.5c.4-1.5,1.1-2.9,1.9-4.2.8-1.2,1.9-2.3,3.1-3.1,1.2-.8,2.6-1.2,4.1-1.2h30.9c.7,0,1.3.3,1.8.8.5.6.7,1.2.7,2s-.2,1.5-.7,2c-.5.6-1.1.8-1.8.8h-29.8c-1.2,0-2.2.2-3,.7s-1.4,1.1-1.8,1.8-.7,1.5-.9,2.3c-.2.9-.2,1.6-.2,2.3s.1,1.5.2,2.3c.2.9.5,1.6.9,2.3s1,1.3,1.8,1.8,1.8.7,3,.7h25.7c.4,0,.8-.2,1.1-.7.3-.4.5-.9.5-1.5s-.2-1.1-.5-1.5-.7-.7-1.2-.7h-20.1c-.7,0-1.3-.3-1.8-.8-.4,0-.6-.8-.6-1.5Z"/>
  <path class="st0" d="M22.6,39.2c.3,1.6.5,3.3.5,4.9,0,3.5-.5,6.8-1.5,9.9-3.2,10.5-11.3,18.9-21.6,22.4,1-.3,2.1-1.7,2.8-2.4.9-.9,1.8-1.8,2.7-2.8,1.7-2,3.1-4.2,4.3-6.5,2.4-4.9,3.6-10.2,3.6-15.6s-.1-2.8-.3-4.2c-.8-5.5-2.9-10.8-2.9-16.4s.5-6.8,1.5-9.9C13.9,10.9,18.8,4.3,25.4,0c-4.2,5.7-6.6,12.7-6.6,20.2s.6,6.8,1.6,10.1c.2.7.4,1.4.6,2.1.6,2.3,1.2,4.5,1.6,6.8Z"/>
  <path class="st0" d="M31.9,43.7c.2,10.4-7.9,20-16.6,24.8-.6.3-1.5.6-2,1,2-1.8,3.7-3.8,5.2-6,3.7-5.5,5.9-12,5.9-19.1s-.2-4.3-.6-6.3v-.2c-.1-.4-.2-.8-.3-1.3,0-.2-.1-.4-.1-.6-.9-3.8-2.5-7.5-3-11.4-.2-1.4-.3-2.8-.3-4.2,0-2.7.3-5.4.9-8,.2-1.1.6-2.1.9-3.2.1,0,.1-.2.1-.3s0-.1.1-.1v.3c-.1,4.4.5,8.7,1.8,12.9,1,3.2,2.6,6.1,4.1,9.1,1,2,1.9,4,2.7,6.1.8,2,1.2,4.3,1.2,6.5Z"/>
  <path class="st0" d="M12,49.1v1.4c-.1,2.5-.5,5-1.1,7.4-1.7,6.3-5.1,11-9.4,15.8,4.8-5.5,6.4-14.8,5.8-21.9-.2-2.1-.6-4.1-1.1-6.2-1.5-6-3.7-11.8-1.9-18.1,1.2-4,3.5-7.5,6.6-10.2-1.3,3.6-2,7.4-2,11.5s.5,6.8,1.5,10c0,0,.1.2.1.3.6,2,1,4,1.3,6.1,0,1.3.2,2.6.2,3.9Z"/>
  <path class="st0" d="M10.5,39.2c.6,2,1,4,1.3,6.1-1.4.3-2.9.5-4.4.5h-1.1c-1.5-6-3.7-11.8-1.9-18.1,1.2-4,3.5-7.5,6.6-10.2-1.3,3.6-2,7.4-2,11.5s.5,6.8,1.5,10c-.1,0-.1,0,0,.2Z"/>
  <path class="st0" d="M20.9,32.4c.6,2.2,1.3,4.5,1.7,6.8-2.6,2.7-5.9,4.7-9.6,5.7-.8-5.5-2.9-10.8-2.9-16.4s.5-6.8,1.5-9.9C13.9,10.9,18.8,4.3,25.4,0c-4.2,5.7-6.6,12.7-6.6,20.2s.6,6.8,1.6,10.1c.1.7.3,1.4.5,2.1Z"/>
  <path class="st0" d="M23,38.3h0q0,0,0,0t0,0Z"/>
  <path class="st0" d="M28,31c-1,2.6-2.4,5-4.2,7.1v-.2c-.1-.4-.2-.8-.3-1.3,0-.2-.1-.4-.1-.6-.9-3.8-2.5-7.5-3-11.4-.2-1.4-.3-2.8-.3-4.2,0-2.7.3-5.4.9-8,.2-1.1.6-2.1.9-3.2.1,0,.1-.2.1-.3s0-.1.1-.1v.3c-.1,4.4.5,8.7,1.8,12.9,1.1,3.1,2.6,6,4.1,9Z"/>
  <g>
    <path class="st0" d="M324.5,74.6l.9-1.9c1.2,1.1,3.3,1.9,5.5,1.9s4.1-1.1,4.1-2.6c0-4.1-10.1-1.5-10.1-7.7s2-4.7,6.4-4.7,4,.5,5.3,1.5l-.8,1.9c-1.4-.9-3.1-1.4-4.6-1.4-2.8,0-4,1.2-4,2.6,0,4.1,10.1,1.5,10.1,7.6s-2,4.7-6.4,4.7c-2.6.2-5.1-.7-6.4-1.9Z"/>
    <path class="st0" d="M339.4,68.2c0-4.9,3.8-8.5,8.9-8.5s8.8,3.6,8.8,8.5-3.8,8.5-8.8,8.5-8.9-3.6-8.9-8.5ZM354.7,68.2c0-3.7-2.8-6.4-6.4-6.4s-6.5,2.7-6.5,6.4,2.8,6.4,6.5,6.4,6.4-2.7,6.4-6.4Z"/>
    <path class="st0" d="M360.7,59.9h2.4v14.6h9v2.1h-11.4v-16.7Z"/>
    <path class="st0" d="M374.4,69.3v-9.4h2.4v9.4c0,3.7,1.7,5.3,4.7,5.3s4.7-1.7,4.7-5.3v-9.4h2.3v9.4c0,4.8-2.6,7.4-7,7.4-4.5,0-7.1-2.6-7.1-7.4Z"/>
    <path class="st0" d="M396.3,61.9h-5.7v-2.1h13.7v2.1h-5.7v14.6h-2.4v-14.6h.1Z"/>
    <path class="st0" d="M406.9,59.9h2.4v16.6h-2.4v-16.6Z"/>
    <path class="st0" d="M412.9,68.2c0-4.9,3.8-8.5,8.9-8.5s8.8,3.6,8.8,8.5-3.8,8.5-8.8,8.5-8.9-3.6-8.9-8.5ZM428.2,68.2c0-3.7-2.8-6.4-6.4-6.4s-6.5,2.7-6.5,6.4,2.8,6.4,6.5,6.4,6.4-2.7,6.4-6.4Z"/>
    <path class="st0" d="M448.5,59.9v16.6h-1.9l-10-12.4v12.4h-2.4v-16.6h1.9l10,12.4v-12.4h2.4Z"/>
    <path class="st0" d="M452,74.6l.9-1.9c1.2,1.1,3.3,1.9,5.5,1.9s4.1-1.1,4.1-2.6c0-4.1-10.1-1.5-10.1-7.7s2-4.7,6.4-4.7,4,.5,5.3,1.5l-.8,1.9c-1.4-.9-3.1-1.4-4.6-1.4-2.8,0-4,1.2-4,2.6,0,4.1,10.1,1.5,10.1,7.6s-2,4.7-6.4,4.7c-2.6.2-5.1-.7-6.4-1.9Z"/>
  </g>
</svg>