<?xml version="1.0" encoding="UTF-8"?>
<svg id="Layer_1" xmlns="http://www.w3.org/2000/svg" xmlns:xlink="http://www.w3.org/1999/xlink" version="1.1" viewBox="0 0 5554.2 1916">
  <!-- Generator: Adobe Illustrator 29.2.0, SVG Export Plug-In . SVG Version: 2.1.0 Build 108)  -->
  <defs>
    <style>
      .st0, .st1 {
        fill: #fff;
      }

      .st1 {
        stroke: #e4097e;
        stroke-miterlimit: 10;
        stroke-width: .2px;
      }
    </style>
  </defs>
  <path class="st0" d="M1596.7,1575.8c-28.8,120.7-87.7,225.7-171.8,310.4h461.3c87.5-478-227.4-989.2-742.8-1099.5,105.2,28.8,557.3,241.1,453.3,789.1"/>
  <path class="st0" d="M0,0v1886h201.1c122-.2,150.2,2.6,216.9-7.9,287.7-41.9,550.7-276,579.1-482.8,42.6-244.9-90.8-459.5-346.6-512.8-4.6-.9-9.5-2.4-14.8-4.2-9.1,0-133.9,1.3-230-24.4-1.2,1-55.2,43.7-33,125.7,0,0-128.2-133.7-46.7-313.4,0,0,39.5-84.7,173.4-171.4,1-1.2,2.1-2.4,3.1-3.7,35.9-42.5,121.8-117.5,246.5-176.7,63.6-28.6,172.9-69.6,295.2-80.1,558-51.9,857.6,374.9,857.6,374.9V0H0Z"/>
  <path class="st0" d="M1374.4,457.9c-267.8-35.7-493,33.5-670.6,157.2,0,0,52.2-29.9,132.6-58.7,11.8,51.5,55.1,94.8,113.5,107,78.2,16.3,153.8-29.5,169-102.1,4.1-19.7,3.3-39.4-1.6-58,511.5-15.5,784.4,374.4,784.4,374.4v-168.2c-77.9-78.8-287.1-224.9-527.3-251.6"/>
  <g>
    <path class="st0" d="M2292.6,1199.8h138.9l262.2,698.5h-156.5l-55.8-161.4h-244.6l-55.8,161.4h-150.7l262.3-698.5ZM2443.3,1616.6l-85.1-250.5-84.1,250.5h169.2Z"/>
    <path class="st0" d="M2778.8,1199.8h261.2c107,0,190.3,29,250,87.1s89.5,144.2,89.5,258.3-8.3,108.9-24.9,152.6c-16.6,43.7-40.6,80.5-71.9,110.5-31.3,30-69.5,52.5-114.4,67.5-45,15-95.9,22.5-152.6,22.5h-236.7v-698.5h-.2ZM3018.5,1774.1c37.8,0,70.1-5.4,96.8-16.1,26.7-10.8,48.4-26.2,65.1-46.5,16.6-20.2,28.9-44.2,36.7-71.9,7.8-27.7,11.7-58.9,11.7-93.4s-3.4-64.7-10.3-92.5c-6.8-27.7-17.8-51-32.8-69.9s-34.4-33.6-58.2-44-53-15.6-87.6-15.6h-115.4v450h94Z"/>
    <polygon class="st0" points="3494.7 1199.8 3625.8 1199.8 3913.4 1657.7 3913.4 1199.8 4055.3 1199.8 4055.3 1898.4 3925.2 1898.4 3636.6 1444.4 3636.6 1898.4 3494.7 1898.4 3494.7 1199.8"/>
    <path class="st0" d="M4510.5,1916c-52.2,0-98.8-8.5-139.9-25.4s-76-41.4-104.7-73.4-50.7-70.5-66-115.4c-15.3-45-23-95.9-23-152.6s7.7-107.6,23-152.6,37.5-83.5,66.5-115.4c29-32,64.1-56.4,105.2-73.4,41.1-16.9,87.4-25.4,138.9-25.4s98.8,8.5,139.9,25.4c41.1,17,75.8,41.4,104.2,73.4,28.4,32,50.1,70.4,65.1,115.4s22.5,95.9,22.5,152.6-7.3,107.6-22,152.6-36.2,83.5-64.6,115.4c-28.4,32-63.1,56.4-104.2,73.4-41.1,16.9-88,25.4-140.9,25.4M4509.6,1790.8c61.3,0,107-20.9,137-62.6s45-101.4,45-179-15-136.5-45-178.5c-30-42.1-75.7-63.1-137-63.1s-107,21-137,63.1-45,101.6-45,178.5,15,137.3,45,179,75.7,62.6,137,62.6"/>
    <path class="st0" d="M5553.4,1656.7c-3.3,37.2-11.9,71.6-25.9,103.2s-33.3,59-57.7,82.2c-24.5,23.2-54.5,41.3-90,54.3s-76.8,19.6-123.8,19.6-99.3-8.8-139.4-26.4-73.7-42.4-100.8-74.3c-27.1-32-47.5-70.6-61.1-115.9-13.7-45.3-20.5-95.4-20.5-150.2s7.5-107.6,22.5-152.6,36.5-83.5,64.6-115.4c28-32,62-56.4,101.7-73.4,39.8-16.9,84.8-25.4,135-25.4s83,5.5,115.9,16.6,60.7,27.1,83.2,47.9c22.5,20.9,40.6,46,54.3,75.3,13.7,29.4,23.8,62.3,30.3,98.8l-144.8,18.6c-7.2-41.1-21-73.4-41.6-96.9-20.5-23.5-53-35.2-97.3-35.2s-98.7,21.1-127.7,63.1c-29,42.1-43.5,101.6-43.5,178.5s15.5,137.3,46.5,179,72.5,62.6,124.7,62.6,78.1-11.6,99.3-34.7c21.2-23.1,34.4-56.3,39.6-99.3h156.5Z"/>
    <path class="st0" d="M2778.8,753.2V134.1h145.7v746.7h-607.6c-96.9,0-168.8-20.9-215.5-62.8-46.7-41.8-70.1-105.6-70.1-191.4s9.8-89.2,29.3-125.5c19.5-36.2,48.3-64.8,86.3-85.7s83.5-32.8,136.5-35.6l16.7,124.5c-46.7,3.5-80.2,14.8-100.4,34-20.2,19.2-30.3,48.6-30.3,88.4s11.3,76,34,96.2c22.6,20.2,58.4,30.3,107.2,30.3h468.2ZM2643.6,436.2v49.2h-186.1v-49.2h23v-31.1c0-25.1,7-44.5,20.9-58.1s33.8-20.4,59.6-20.4,43.7,5.4,55.9,16.2c12.2,10.8,20,29.1,23.5,54.9l-47.1,6.3c-1.4-11.8-4.2-20-8.4-24.6-4.2-4.5-11.2-6.8-20.9-6.8-21.6,0-32.4,12.2-32.4,36.6v26.9h112Z"/>
    <path class="st0" d="M4315,360.9v392.3h-799.8v-148.6c0-81.6-19.2-142.6-57.5-183s-96.9-60.7-175.7-60.7-133.5,21.6-176.7,64.8c-43.3,43.2-64.9,101.8-64.9,175.7s27,163.5,81.1,209.8c54,46.4,131.9,69.6,233.7,69.6h18.8v16.9c0,56.5-7.1,89-21.1,107.7l71.5,112.4c12.2-7.4,23.1-16,32.8-25.8,38.7-39.4,58.1-128.9,58.1-211.2h941V360.9h-141.3ZM3374,753.2h-43.9c-99,0-148.5-57-148.5-151.8s8.4-69,25.1-89.9c16.7-20.9,41.1-31.4,73.2-31.4s43.2,4,56.5,12c13.2,8,22.8,22.5,28.7,43.4s8.9,62.2,8.9,104.7v113Z"/>
    <rect class="st0" x="4315.1" y="149.2" width="141.2" height="141.2"/>
    <path class="st0" d="M5123.7,753.2v-75.4c0-64.1-12-111.5-36.1-142.2s-61.2-46-111.4-46-67.6,6.3-106.7,18.8l-33.5-124.5c47.4-15.3,97.9-23,151.6-23,89.3,0,157.7,26.2,205.5,78.4,47.7,52.3,71.6,127.3,71.6,224.9v216.6h-702.4v-127.6h561.4Z"/>
    <path class="st0" d="M5554.2,100v49.2h-186.2v-49.2h23v-31c0-25.1,7-44.4,20.9-58,13.9-13.6,33.8-20.4,59.6-20.4s43.7,5.4,55.9,16.2c12.2,10.8,20,29.1,23.5,54.9l-47.1,6.3c-1.4-11.8-4.2-20-8.4-24.6-4.2-4.5-11.2-6.8-20.9-6.8-21.6,0-32.4,12.2-32.4,36.6v26.8h112.1Z"/>
    <rect class="st0" x="5385.3" y="204.7" width="141.2" height="676.1"/>
  </g>
  <path class="st1" d="M404.5,1886.2"/>
</svg>