<?xml version="1.0" encoding="UTF-8"?>
<svg id="Layer_1" xmlns="http://www.w3.org/2000/svg" version="1.1" viewBox="0 0 379 114.4">
  <!-- Generator: Adobe Illustrator 29.2.0, SVG Export Plug-In . SVG Version: 2.1.0 Build 108)  -->
  <defs>
    <style>
      .st0 {
        fill: #fff;
      }
    </style>
  </defs>
  <g id="Layer_11" data-name="Layer_1">
    <g>
      <path class="st0" d="M24.7,100.5c-7.8-5.7-12-9.8-15.9-15.8C3.1,75.9,0,65.3,0,54.9,0,24.5,24.4,0,54.7,0s54.7,24.5,54.7,54.7-4.3,24.9-11.8,34.1c-3.1,3.9-5.8,6.2-12.9,11.6v-32h5.4v21.9c4-4.7,6-7.6,7.9-11.1,4-7.2,6.2-16,6.2-24.5,0-27.7-22.2-50.1-49.7-50.1S5.1,27.1,5.1,55.1s4.5,24.1,14.1,35.3v-21.9h5.5s0,32,0,32ZM35.5,106c-1-.2-3.5-1.4-5.4-2.4v-35.2h5.4v37.6ZM68.5,28.8l-13.7-10.6-13.7,10.6-3-3.9,16.7-13,16.7,13-3,3.9ZM46.5,108.9c-2-.3-2.1-.3-2.8-.6-.6-.1-.8-.1-2.7-.6V32.8h5.4v76.1h0ZM57.4,109.4c-.8.1-1,.1-2.2.1-1.7,0-2.3,0-3.2-.1V32.8h5.4v76.5h0ZM68.3,107.6c-1.7.6-3.2.9-5.4,1.4V32.8h5.4v74.8h0ZM79.4,103.6c-1.7.8-2.8,1.3-5.5,2.5v-37.7h5.5s0,35.2,0,35.1Z"/>
      <path class="st0" d="M142,5.4c1.7-.1,3.1-.2,3.6-.2,6.6,0,10.9,3.8,10.9,9.7s-2.2,6.9-6.9,9.2c6,1.3,9.2,5.1,9.2,10.7s-2.4,8.1-6.2,9.6c-1.7.7-3.8.9-7.6.9h-3.6c-2-.1-3.5-.1-4.6-.1h-6.7v-2.3l3.9-.7V8.6l-3.9-.7v-2.4h11.9c0-.1,0-.1,0-.1ZM130.4,104.1v-2.3l3.7-.7v-33.7l-3.7-.6v-2.5h13.2v2.4l-3.5.7v33.5l3.3.7v2.4h-13.1,0ZM142.7,23c5,0,7.3-2.5,7.3-7.9s-2.4-7.4-6.6-7.4-2,.1-3.6.7v14.6h2.9ZM139.8,42c1.1.7,2,.9,3.6.9,5.4,0,8.8-3.3,8.8-8.8s-3.1-8.3-9.8-8.3h-2.5v16.1h0ZM161.8,104.1v-2.3l3-.6v-16.8c0-3.2-1-4.7-3.2-4.7s-3.2.7-5.4,2.5v18.8l3,.7v2.4h-11.9v-2.3l3.3-.7v-21l-3.3-.5v-2.3l7.1-1.8h1.6v3.5c3.5-2.7,5.1-3.3,7.6-3.3,4.4,0,6.8,2.8,6.8,7.5v17.9l3,.7v2.4h-11.7ZM185.9,30.5c0,9.1-4.7,15.2-11.6,15.2s-11.1-5.8-11.1-14.2,4.7-15.2,11.6-15.2,11.1,5.6,11.1,14.2ZM169.3,31.4c0,7.4,1.8,11.5,5.1,11.5s5.3-4.4,5.3-13-1.8-10.7-5.1-10.7-5.3,4.5-5.3,12.2h0ZM195.7,79.4c1.6,2.1,2.1,3.5,2.1,5.7,0,5.3-4.1,9.2-9.7,9.2s-2.1-.1-3.1-.5c-1.4.9-2.2,1.8-2.2,2.5s.7,1,2.4,1.2l6.9.3c5.4.2,7.9,2.3,7.9,6.6,0,6.1-5.4,10-13.7,10s-10.3-2.3-10.3-5.9,1.1-3.8,4.5-6c-2.3-.9-3.2-2-3.2-3.6s1.5-3.9,5.2-6.2c-3.5-2.2-4.7-4.4-4.7-7.9,0-5.4,4.1-9.6,9.6-9.6s1.6.1,3.7.6c1.1.3,2,.5,2.5.5s.6,0,1-.1h5.8c0-.1,0,3.2,0,3.2h-4.7ZM183.7,103c-1.5,1.4-2.1,2.5-2.1,4.3,0,2.5,2.3,4,6.1,4s8.3-2,8.3-4.7-1.3-2.9-10.1-3.5h-2.2c0-.1,0,0,0,0ZM183.9,84.6c0,4.8,1.1,7,3.9,7s3.9-2.2,3.9-6.4-1.4-7.5-4.1-7.5-3.7,2.2-3.7,6.9ZM195.9,30.7c.6,7.8,2.5,11.1,6.7,11.1s3.6-1,5.3-3.7l2.5,1c-2.9,5.2-5,6.7-9.4,6.7-6.9,0-10.8-5-10.8-14s4-15.3,10.7-15.3,9.6,4.6,9.7,14.2h-14.6,0ZM204.7,27.9c-.2-6.2-1.4-8.6-4-8.6s-4,2.6-4.7,8.6h8.8Z"/>
      <path class="st0" d="M209.3,89.4c.6,7.9,2.5,11.2,6.7,11.2s3.7-1,5.4-3.7l2.5,1c-2.6,5-5.1,6.7-9.6,6.7-6.9,0-10.8-5.2-10.8-14.1s4-15.2,10.7-15.2,7.6,2.4,9,6.9c.5,1.5.6,3.3.8,7.2h-14.8ZM218.1,86.8c-.1-6-1.3-8.6-3.9-8.6s-4.1,2.5-4.8,8.6h8.8ZM228.4,45.2v-2.3l2.8-.6v-15.6c0-4.1-.9-5.6-3.3-5.6s-3,.6-5.3,2.5v18.6l2.8.6v2.4h-11.8v-2.3l3.5-.7V7l-3.2-.7v-2l7.1-1.5h1.6v17.4c3.2-2.5,5.1-3.3,7.5-3.3,4.5,0,6.8,2.6,6.8,7.8v17.4l3,.6v2.4h-11.4ZM227.4,104.1v-2.3l3.3-.7v-35.5l-3.2-.3v-2l7.3-1.6h1.5v39.3l3.1.7v2.4h-12,0ZM257.9,104.1v-2.3l2.8-.6v-15.7c0-4.2-.9-5.7-3.3-5.7s-3,.7-5.3,2.7v18.4l2.8.7v2.4h-11.6v-2.3l3.3-.7v-35.3l-3.2-.6v-2l7.3-1.6h1.5v17.5c3.1-2.5,5-3.3,7.6-3.3,4.3,0,6.7,2.7,6.7,7.4v17.8l3.1.7v2.4h-11.5ZM252.4,22c2.3-3.9,3.5-5,5.5-5s3.3,1.3,3.3,3.3-.7,2.3-2.2,3.5l-3-1.6c-2,1-3.6,3.2-3.6,4.8v15.1l4,.6v2.4h-12.8v-2.3l3.3-.7v-21.2l-3.3-.6v-1.8l6.9-1.8h1.7v5.3h0ZM264.2,45.2v-2.3l3.1-.7v-20.8l-3.1-.7v-2l7.3-1.8h1.4v25.2l3.2.6v2.4h-11.9ZM273.3,6.6c0,2.1-1.6,3.7-3.7,3.7s-3.7-1.6-3.7-3.7,1.6-3.7,3.7-3.7,3.7,1.6,3.7,3.7ZM278.9,89.4c.6,7.9,2.5,11.2,6.7,11.2s3.7-1,5.4-3.7l2.5,1c-2.6,5-5.1,6.7-9.6,6.7-6.9,0-10.8-5.2-10.8-14.1s4-15.2,10.7-15.2,7.6,2.4,9,6.9c.5,1.5.6,3.3.8,7.2h-14.8ZM287.7,86.8c-.1-6-1.3-8.6-3.9-8.6s-4.1,2.5-4.8,8.6h8.8Z"/>
      <path class="st0" d="M294.6,45.2v-2.3l3-.6v-16.8c0-3.2-1-4.7-3.2-4.7s-3.2.7-5.4,2.5v18.8l3,.7v2.4h-11.9v-2.3l3.3-.7v-21l-3.3-.5v-2.3l7.1-1.8h1.6v3.5c3.5-2.6,5.1-3.3,7.6-3.3,4.4,0,6.8,2.8,6.8,7.5v17.9l3,.7v2.4h-11.6ZM298.2,104.1v-2.3l3.1-.7v-20.9l-3.1-.7v-1.8l7.3-1.8h1.4v25.1l3.2.7v2.4h-11.9ZM307.4,65.3c0,2.1-1.7,3.8-3.8,3.8s-3.7-1.6-3.7-3.7,1.7-3.8,3.9-3.8,3.6,1.7,3.6,3.7h0ZM328.4,20.5c1.6,2.1,2.1,3.5,2.1,5.6,0,5.3-4.1,9.2-9.7,9.2s-2.1-.1-3.1-.5c-1.4.9-2.2,1.8-2.2,2.4s.7,1.2,2.4,1.3l6.9.3c5.4.2,8,2.3,8,6.6,0,6.1-5.4,10-13.7,10s-10.3-2.3-10.3-5.9,1.3-3.9,4.5-6c-2.3-.9-3.2-2.1-3.2-3.7s1.5-3.8,5.2-6.1c-3.5-2.2-4.7-4.4-4.7-8,0-5.4,4.1-9.6,9.6-9.6s1.6.1,3.7.6c1.1.4,2,.5,2.5.5s.6,0,1-.1h5.8c0-.1,0,3.2,0,3.2h-4.7ZM343.2,104.1v-2.3l3.1-.7v-16c0-3.8-1-5.3-3.5-5.3s-3.1.7-5.4,2.8v18.4l2.9.7v2.4h-11.6v-2.3l3.2-.7v-16.1c0-3.6-1.1-5.2-3.7-5.2s-3.2.7-5.2,2.7v18.6l2.6.7v2.4h-11.8v-2.3l3.3-.7v-21.2l-3.3-.6v-2l7.3-1.8h1.5v3.8c2.9-2.4,5.1-3.3,7.8-3.3s4.8,1.2,6.5,3.7c3-2.8,5-3.8,8-3.8,5,0,7,2.4,7,8.2v16.9l3.2.7v2.4h-12,0ZM314.3,48.4c0,2.5,2.3,4,6.1,4s8.3-2.1,8.3-4.7-.9-2.9-12.3-3.6c-1.5,1.4-2.1,2.5-2.1,4.3h0ZM316.6,25.7c0,4.8,1.1,7,3.9,7s3.9-2.2,3.9-6.5-1.4-7.5-4.1-7.5-3.7,2.2-3.7,6.9h0ZM342.1,30.7c.6,7.8,2.5,11.1,6.7,11.1s3.6-1,5.3-3.7l2.5,1c-2.9,5.2-5,6.7-9.5,6.7-6.9,0-10.8-5-10.8-14s4-15.3,10.7-15.3,9.6,4.6,9.7,14.2h-14.6,0ZM350.8,27.9c-.2-6.2-1.4-8.6-4-8.6s-4,2.6-4.7,8.6h8.8ZM370.1,22c2.3-3.9,3.5-5,5.5-5s3.3,1.3,3.3,3.3-.7,2.3-2.2,3.5l-3-1.6c-2,1-3.6,3.2-3.6,4.8v15.1l4,.6v2.4h-12.8v-2.3l3.3-.7v-21.2l-3.3-.6v-1.8l6.9-1.8h1.7v5.3h0Z"/>
    </g>
  </g>
</svg>