<?xml version="1.0" encoding="UTF-8"?>
<svg id="Layer_1" xmlns="http://www.w3.org/2000/svg" version="1.1" viewBox="0 0 558.58 344.91">
  <!-- Generator: Adobe Illustrator 29.2.1, SVG Export Plug-In . SVG Version: 2.1.0 Build 116)  -->
  <defs>
    <style>
      .st0 {
        fill: #fff;
      }
    </style>
  </defs>
  <g>
    <g>
      <path class="st0" d="M24.03,274.53l-10.93,11.23v17.62H.3v-68.92h12.8v35.35l34.07-35.35h14.38l-28.95,30.82,30.72,38.1h-14.97l-24.32-28.85Z"/>
      <path class="st0" d="M112.94,287.43h-34.46l-6.79,15.95h-13.19l31.02-68.92h12.6l31.11,68.92h-13.39l-6.89-15.95ZM108.7,277.39l-13-30.13-12.9,30.13h25.9Z"/>
      <path class="st0" d="M146.32,245.29h-22.84v-10.83h58.49v10.83h-22.84v58.09h-12.8v-58.09Z"/>
      <path class="st0" d="M255.12,268.13h12.11v27.47c-3.54,2.82-7.68,4.99-12.41,6.5-4.73,1.51-9.59,2.26-14.57,2.26-7.02,0-13.36-1.53-19-4.58-5.65-3.05-10.08-7.27-13.29-12.65-3.22-5.38-4.82-11.45-4.82-18.22s1.61-12.83,4.82-18.22c3.22-5.38,7.66-9.6,13.34-12.65,5.68-3.05,12.06-4.58,19.15-4.58,5.78,0,11.03.95,15.75,2.86,4.73,1.9,8.7,4.69,11.91,8.37l-8.07,7.88c-5.25-5.25-11.59-7.88-19-7.88-4.86,0-9.17,1.02-12.95,3.05-3.78,2.04-6.73,4.89-8.86,8.57-2.13,3.68-3.2,7.88-3.2,12.6s1.07,8.73,3.2,12.41c2.13,3.68,5.09,6.57,8.86,8.67,3.77,2.1,8.06,3.15,12.85,3.15,5.38,0,10.11-1.18,14.18-3.54v-21.47Z"/>
      <path class="st0" d="M325.22,303.38l-14.08-20.19c-.59.07-1.48.1-2.66.1h-15.56v20.09h-12.8v-68.92h28.36c5.97,0,11.18.98,15.61,2.95,4.43,1.97,7.83,4.79,10.19,8.47,2.36,3.68,3.54,8.04,3.54,13.1s-1.26,9.65-3.79,13.39c-2.53,3.74-6.15,6.53-10.88,8.37l15.85,22.65h-13.78ZM320.59,248.83c-2.89-2.36-7.12-3.55-12.7-3.55h-14.97v27.47h14.97c5.58,0,9.81-1.2,12.7-3.59,2.89-2.4,4.33-5.79,4.33-10.19s-1.44-7.78-4.33-10.14Z"/>
      <path class="st0" d="M361.36,299.79c-5.65-3.05-10.08-7.29-13.29-12.7-3.22-5.42-4.82-11.47-4.82-18.17s1.61-12.75,4.82-18.17c3.22-5.42,7.65-9.65,13.29-12.7,5.64-3.05,11.98-4.58,19-4.58s13.36,1.53,19,4.58c5.64,3.05,10.08,7.27,13.29,12.65,3.22,5.38,4.83,11.46,4.83,18.22s-1.61,12.83-4.83,18.22c-3.22,5.38-7.65,9.6-13.29,12.65-5.65,3.05-11.98,4.58-19,4.58s-13.36-1.53-19-4.58ZM392.76,290.04c3.68-2.07,6.56-4.96,8.66-8.66,2.1-3.71,3.15-7.86,3.15-12.46s-1.05-8.75-3.15-12.45c-2.1-3.71-4.99-6.6-8.66-8.67-3.68-2.07-7.81-3.1-12.41-3.1s-8.73,1.03-12.41,3.1c-3.68,2.07-6.57,4.96-8.66,8.67-2.1,3.71-3.15,7.86-3.15,12.45s1.05,8.75,3.15,12.46c2.1,3.71,4.99,6.6,8.66,8.66,3.68,2.07,7.81,3.1,12.41,3.1s8.73-1.03,12.41-3.1Z"/>
      <path class="st0" d="M434.51,296.34c-5.32-5.35-7.98-13.01-7.98-22.99v-38.89h12.8v38.4c0,13.52,5.84,20.28,17.53,20.28s17.43-6.76,17.43-20.28v-38.4h12.6v38.89c0,9.98-2.64,17.64-7.93,22.99-5.28,5.35-12.69,8.02-22.2,8.02s-16.94-2.67-22.25-8.02Z"/>
      <path class="st0" d="M544.84,237.41c4.43,1.97,7.83,4.79,10.19,8.47,2.36,3.68,3.55,8.04,3.55,13.1s-1.18,9.34-3.55,13.05c-2.36,3.71-5.76,6.55-10.19,8.52-4.43,1.97-9.63,2.95-15.61,2.95h-15.56v19.89h-12.8v-68.92h28.36c5.97,0,11.18.98,15.61,2.95ZM541.34,269.12c2.89-2.36,4.33-5.74,4.33-10.14s-1.44-7.78-4.33-10.14c-2.89-2.36-7.12-3.55-12.7-3.55h-14.97v27.37h14.97c5.58,0,9.81-1.18,12.7-3.54Z"/>
    </g>
    <g>
      <path class="st0" d="M20.71,338.83l-.03-19.48-9.53,16.49h-.56l-9.56-16.43v19.42H0v-21.61h.87l10,17.29,9.97-17.29h.87l.03,21.61h-1.02Z"/>
      <path class="st0" d="M39.36,324.16c1.02.99,1.54,2.42,1.54,4.29v10.37h-.99v-3.21c-.52,1.03-1.29,1.84-2.31,2.42s-2.25.88-3.68.88c-1.8,0-3.21-.41-4.24-1.23-1.02-.82-1.54-1.91-1.54-3.27s.47-2.35,1.4-3.17c.93-.81,2.42-1.22,4.47-1.22h5.87v-1.57c0-1.58-.42-2.79-1.26-3.61-.84-.82-2.08-1.24-3.71-1.24-1.14,0-2.2.2-3.2.59-.99.39-1.84.92-2.55,1.58l-.56-.74c.79-.74,1.73-1.32,2.84-1.73,1.11-.41,2.27-.62,3.49-.62,1.93,0,3.4.49,4.42,1.48ZM39.87,334.2v-3.33h-5.87c-1.68,0-2.9.31-3.68.94-.78.63-1.16,1.48-1.16,2.55,0,1.15.43,2.06,1.29,2.72.86.66,2.03.99,3.52.99,2.9,0,4.86-1.29,5.9-3.86Z"/>
      <path class="st0" d="M60.45,324.42c1.16,1.16,1.74,2.82,1.74,4.99v9.42h-1.02v-9.36c0-1.89-.48-3.34-1.44-4.34s-2.33-1.5-4.11-1.5c-2.01,0-3.59.59-4.75,1.78s-1.74,2.77-1.74,4.77v8.65h-1.02v-16.02h.99v3.92c.52-1.26,1.35-2.24,2.5-2.96,1.15-.72,2.52-1.08,4.11-1.08,2.01,0,3.59.58,4.75,1.74Z"/>
      <path class="st0" d="M81.35,323.71c1.2.69,2.15,1.66,2.84,2.9.69,1.25,1.04,2.65,1.04,4.21s-.35,2.96-1.04,4.18c-.69,1.22-1.64,2.18-2.84,2.87-1.2.69-2.54,1.03-4.01,1.03-1.55,0-2.94-.39-4.18-1.17-1.23-.78-2.15-1.85-2.75-3.21v10.28h-1.02v-22.01h.99v4.38c.6-1.4,1.52-2.5,2.75-3.3,1.23-.8,2.63-1.2,4.21-1.2,1.47,0,2.8.35,4.01,1.03ZM80.84,337.08c1.04-.61,1.87-1.45,2.47-2.53.6-1.08.9-2.32.9-3.72s-.3-2.64-.9-3.74c-.6-1.09-1.42-1.94-2.47-2.55-1.05-.61-2.22-.91-3.52-.91s-2.48.3-3.52.91c-1.05.61-1.87,1.46-2.47,2.55-.6,1.09-.9,2.34-.9,3.74s.3,2.64.9,3.72c.6,1.08,1.42,1.92,2.47,2.53,1.04.61,2.22.91,3.52.91s2.48-.3,3.52-.91Z"/>
      <path class="st0" d="M92.82,337.88c-1.21-.69-2.16-1.65-2.84-2.89-.68-1.24-1.02-2.63-1.02-4.2s.34-2.96,1.02-4.2,1.63-2.2,2.84-2.89c1.21-.69,2.56-1.03,4.05-1.03s2.87.35,4.07,1.03c1.2.69,2.14,1.65,2.83,2.89s1.02,2.63,1.02,4.2-.34,2.96-1.02,4.2c-.68,1.23-1.63,2.2-2.83,2.89-1.2.69-2.56,1.03-4.07,1.03s-2.84-.34-4.05-1.03ZM100.4,337.08c1.04-.61,1.87-1.46,2.47-2.55.6-1.09.9-2.34.9-3.74s-.3-2.64-.9-3.72c-.6-1.08-1.42-1.92-2.47-2.53-1.05-.61-2.22-.91-3.52-.91s-2.48.3-3.52.91c-1.05.61-1.87,1.45-2.47,2.53-.6,1.08-.9,2.32-.9,3.72s.3,2.65.9,3.74c.6,1.09,1.42,1.94,2.47,2.55,1.04.61,2.22.91,3.52.91s2.48-.3,3.52-.91Z"/>
      <path class="st0" d="M132.9,322.8l-6.15,16.02h-.96l-5.71-14.67-5.74,14.67h-.9l-6.18-16.02h.99l5.62,14.85,5.74-14.85h.93l5.71,14.85,5.65-14.85h.99Z"/>
      <path class="st0" d="M150.47,330.95h-14.13c.02,1.36.34,2.57.96,3.64.62,1.07,1.47,1.9,2.56,2.5,1.09.6,2.3.9,3.65.9,1.1,0,2.11-.2,3.04-.6s1.7-.99,2.3-1.78l.65.68c-.72.84-1.6,1.49-2.64,1.94-1.04.45-2.15.68-3.35.68-1.57,0-2.98-.34-4.21-1.03-1.23-.69-2.2-1.65-2.9-2.89-.7-1.24-1.06-2.63-1.06-4.2s.33-2.96.98-4.2c.65-1.24,1.56-2.2,2.72-2.89,1.16-.69,2.45-1.03,3.88-1.03s2.69.34,3.83,1.02c1.15.68,2.05,1.63,2.72,2.84.66,1.21.99,2.59.99,4.14v.28ZM139.66,324.44c-.97.56-1.75,1.33-2.33,2.33-.58,1-.9,2.12-.96,3.35h13.13c-.08-1.24-.42-2.35-1.01-3.35-.59-1-1.37-1.78-2.33-2.33-.96-.55-2.04-.83-3.24-.83s-2.29.28-3.26.83Z"/>
      <path class="st0" d="M159.33,323.71c1.07-.69,2.39-1.03,3.96-1.03v1.02h-.28c-1.86,0-3.32.59-4.38,1.76-1.06,1.17-1.58,2.79-1.58,4.85v8.52h-1.02v-16.02h.99v3.86c.48-1.28,1.25-2.26,2.31-2.95Z"/>
      <path class="st0" d="M178.46,338.12c-1.42-.56-2.51-1.28-3.28-2.16l.56-.74c.72.82,1.73,1.5,3.03,2.02,1.29.53,2.68.79,4.15.79,2.17,0,3.81-.43,4.92-1.28,1.11-.85,1.66-1.95,1.66-3.29,0-1.03-.29-1.86-.87-2.48-.58-.63-1.29-1.1-2.14-1.42-.85-.32-2.01-.65-3.48-1-1.57-.39-2.84-.77-3.79-1.14s-1.76-.94-2.42-1.7c-.66-.76-.99-1.78-.99-3.06,0-1.01.27-1.93.81-2.78.54-.84,1.36-1.52,2.47-2.02,1.11-.5,2.49-.76,4.15-.76,1.18,0,2.34.18,3.49.53,1.15.35,2.13.83,2.93,1.45l-.47.83c-.85-.62-1.8-1.09-2.84-1.4-1.05-.32-2.08-.48-3.09-.48-2.11,0-3.71.44-4.8,1.31-1.09.87-1.63,1.98-1.63,3.32,0,1.05.29,1.89.88,2.52s1.31,1.11,2.17,1.44c.86.33,2.01.67,3.46,1.02,1.57.39,2.84.77,3.79,1.13.95.36,1.75.92,2.41,1.67s.98,1.76.98,3.01c0,1.01-.27,1.94-.82,2.78-.55.84-1.39,1.51-2.53,2.01-1.14.49-2.55.74-4.22.74-1.57,0-3.07-.28-4.49-.83Z"/>
      <path class="st0" d="M209.96,322.8v16.02h-.99v-3.89c-.5,1.26-1.29,2.23-2.39,2.93-1.1.7-2.4,1.05-3.91,1.05-2.09,0-3.73-.58-4.91-1.73-1.18-1.15-1.77-2.81-1.77-4.97v-9.42h1.02v9.36c0,1.89.49,3.34,1.48,4.34.98,1,2.39,1.5,4.21,1.5,1.93,0,3.45-.59,4.56-1.78s1.68-2.77,1.68-4.77v-8.65h1.02Z"/>
      <path class="st0" d="M229.3,323.71c1.2.69,2.15,1.66,2.84,2.9.69,1.25,1.04,2.65,1.04,4.21s-.35,2.96-1.04,4.18c-.69,1.22-1.64,2.18-2.84,2.87-1.2.69-2.54,1.03-4.01,1.03-1.55,0-2.94-.39-4.18-1.17-1.23-.78-2.15-1.85-2.75-3.21v10.28h-1.02v-22.01h.99v4.38c.6-1.4,1.52-2.5,2.75-3.3,1.23-.8,2.63-1.2,4.21-1.2,1.47,0,2.8.35,4.01,1.03ZM228.79,337.08c1.04-.61,1.87-1.45,2.47-2.53.6-1.08.9-2.32.9-3.72s-.3-2.64-.9-3.74c-.6-1.09-1.42-1.94-2.47-2.55-1.05-.61-2.22-.91-3.52-.91s-2.48.3-3.52.91c-1.05.61-1.87,1.46-2.47,2.55-.6,1.09-.9,2.34-.9,3.74s.3,2.64.9,3.72c.6,1.08,1.42,1.92,2.47,2.53,1.04.61,2.22.91,3.52.91s2.48-.3,3.52-.91Z"/>
      <path class="st0" d="M250.7,323.71c1.2.69,2.15,1.66,2.84,2.9.69,1.25,1.04,2.65,1.04,4.21s-.35,2.96-1.04,4.18c-.69,1.22-1.64,2.18-2.84,2.87-1.2.69-2.54,1.03-4.01,1.03-1.55,0-2.94-.39-4.18-1.17-1.23-.78-2.15-1.85-2.75-3.21v10.28h-1.02v-22.01h.99v4.38c.6-1.4,1.52-2.5,2.75-3.3,1.23-.8,2.63-1.2,4.21-1.2,1.47,0,2.8.35,4.01,1.03ZM250.19,337.08c1.04-.61,1.87-1.45,2.47-2.53.6-1.08.9-2.32.9-3.72s-.3-2.64-.9-3.74c-.6-1.09-1.42-1.94-2.47-2.55-1.05-.61-2.22-.91-3.52-.91s-2.48.3-3.52.91c-1.05.61-1.87,1.46-2.47,2.55-.6,1.09-.9,2.34-.9,3.74s.3,2.64.9,3.72c.6,1.08,1.42,1.92,2.47,2.53,1.04.61,2.22.91,3.52.91s2.48-.3,3.52-.91Z"/>
      <path class="st0" d="M260.14,315.92h1.02v22.91h-1.02v-22.91Z"/>
      <path class="st0" d="M281,322.8l-8.45,18.43c-.6,1.34-1.28,2.28-2.05,2.84-.77.56-1.67.83-2.7.83-.72,0-1.4-.12-2.02-.35-.62-.24-1.15-.59-1.58-1.07l.59-.8c.43.47.89.81,1.37,1.02.48.21,1.02.31,1.65.31.81,0,1.51-.23,2.1-.68.59-.45,1.14-1.24,1.66-2.35l1.02-2.19-7.33-15.99h1.12l6.77,14.85,6.77-14.85h1.09Z"/>
      <path class="st0" d="M303.16,324.16c1.03.99,1.54,2.42,1.54,4.29v10.37h-.99v-3.21c-.52,1.03-1.29,1.84-2.31,2.42-1.03.59-2.25.88-3.68.88-1.8,0-3.21-.41-4.24-1.23-1.03-.82-1.54-1.91-1.54-3.27s.47-2.35,1.4-3.17c.93-.81,2.42-1.22,4.47-1.22h5.87v-1.57c0-1.58-.42-2.79-1.26-3.61-.84-.82-2.08-1.24-3.71-1.24-1.14,0-2.2.2-3.2.59-.99.39-1.84.92-2.55,1.58l-.56-.74c.79-.74,1.73-1.32,2.84-1.73,1.11-.41,2.27-.62,3.49-.62,1.92,0,3.4.49,4.42,1.48ZM303.67,334.2v-3.33h-5.87c-1.68,0-2.9.31-3.68.94-.78.63-1.16,1.48-1.16,2.55,0,1.15.43,2.06,1.29,2.72s2.03.99,3.52.99c2.9,0,4.86-1.29,5.9-3.86Z"/>
      <path class="st0" d="M324.25,324.42c1.16,1.16,1.74,2.82,1.74,4.99v9.42h-1.02v-9.36c0-1.89-.48-3.34-1.44-4.34s-2.33-1.5-4.11-1.5c-2.01,0-3.59.59-4.75,1.78-1.16,1.18-1.74,2.77-1.74,4.77v8.65h-1.02v-16.02h.99v3.92c.52-1.26,1.35-2.24,2.5-2.96,1.15-.72,2.52-1.08,4.11-1.08,2.01,0,3.59.58,4.75,1.74Z"/>
      <path class="st0" d="M347.2,315.92v22.91h-.99v-4.38c-.6,1.4-1.52,2.5-2.75,3.29-1.23.79-2.63,1.19-4.21,1.19-1.47,0-2.81-.34-4.01-1.03-1.2-.69-2.15-1.65-2.84-2.89-.69-1.24-1.04-2.63-1.04-4.2s.35-2.96,1.04-4.2c.69-1.24,1.64-2.2,2.84-2.89,1.2-.69,2.54-1.03,4.01-1.03,1.55,0,2.94.39,4.18,1.17,1.23.78,2.15,1.86,2.75,3.24v-11.18h1.02ZM342.81,337.08c1.05-.61,1.87-1.46,2.47-2.55.6-1.09.9-2.34.9-3.74s-.3-2.64-.9-3.72c-.6-1.08-1.42-1.92-2.47-2.53-1.04-.61-2.22-.91-3.52-.91s-2.48.3-3.52.91c-1.05.61-1.87,1.45-2.47,2.53s-.9,2.32-.9,3.72.3,2.65.9,3.74c.6,1.09,1.42,1.94,2.47,2.55,1.04.61,2.22.91,3.52.91s2.48-.3,3.52-.91Z"/>
      <path class="st0" d="M378.75,338.83l-5.37-7.44c-.7.12-1.49.19-2.36.19h-6.49v7.26h-1.06v-21.61h7.54c2.71,0,4.83.63,6.35,1.9,1.52,1.27,2.28,3.02,2.28,5.26,0,1.73-.45,3.18-1.35,4.34-.9,1.16-2.19,1.97-3.87,2.42l5.56,7.69h-1.24ZM371.08,330.61c2.42,0,4.28-.54,5.59-1.62s1.96-2.62,1.96-4.62-.65-3.5-1.96-4.59c-1.3-1.08-3.17-1.62-5.59-1.62h-6.55v12.44h6.55Z"/>
      <path class="st0" d="M399.02,330.95h-14.13c.02,1.36.34,2.57.96,3.64s1.48,1.9,2.56,2.5c1.09.6,2.3.9,3.65.9,1.1,0,2.11-.2,3.04-.6s1.7-.99,2.3-1.78l.65.68c-.73.84-1.61,1.49-2.64,1.94-1.04.45-2.15.68-3.35.68-1.57,0-2.98-.34-4.21-1.03-1.23-.69-2.2-1.65-2.9-2.89-.7-1.24-1.06-2.63-1.06-4.2s.33-2.96.98-4.2c.65-1.24,1.56-2.2,2.72-2.89,1.16-.69,2.45-1.03,3.88-1.03s2.69.34,3.83,1.02c1.15.68,2.05,1.63,2.72,2.84.66,1.21.99,2.59.99,4.14v.28ZM388.22,324.44c-.97.56-1.75,1.33-2.33,2.33-.58,1-.9,2.12-.96,3.35h13.13c-.08-1.24-.42-2.35-1.01-3.35-.59-1-1.37-1.78-2.33-2.33-.96-.55-2.04-.83-3.24-.83s-2.29.28-3.26.83Z"/>
      <path class="st0" d="M406.65,337.88c-1.21-.69-2.16-1.65-2.86-2.89-.69-1.24-1.04-2.63-1.04-4.2s.35-2.96,1.04-4.2c.69-1.24,1.65-2.2,2.86-2.89,1.21-.69,2.58-1.03,4.11-1.03,1.22,0,2.35.23,3.4.69,1.04.46,1.9,1.15,2.56,2.05l-.78.65c-.58-.8-1.32-1.41-2.22-1.82-.9-.41-1.89-.62-2.97-.62-1.32,0-2.52.3-3.59.91-1.07.61-1.9,1.45-2.5,2.53s-.9,2.32-.9,3.72.3,2.65.9,3.74c.6,1.09,1.43,1.94,2.5,2.55,1.07.61,2.26.91,3.59.91,1.08,0,2.06-.21,2.97-.62.9-.41,1.64-1.02,2.22-1.82l.78.62c-.66.91-1.52,1.59-2.56,2.05-1.05.46-2.18.69-3.4.69-1.53,0-2.9-.34-4.11-1.03Z"/>
      <path class="st0" d="M425.43,323.71c1.07-.69,2.38-1.03,3.96-1.03v1.02h-.28c-1.86,0-3.32.59-4.38,1.76s-1.58,2.79-1.58,4.85v8.52h-1.02v-16.02h.99v3.86c.48-1.28,1.25-2.26,2.31-2.95Z"/>
      <path class="st0" d="M448.45,322.8v16.02h-.99v-3.89c-.5,1.26-1.29,2.23-2.39,2.93-1.1.7-2.4,1.05-3.91,1.05-2.09,0-3.73-.58-4.91-1.73-1.18-1.15-1.77-2.81-1.77-4.97v-9.42h1.02v9.36c0,1.89.49,3.34,1.48,4.34.98,1,2.39,1.5,4.21,1.5,1.92,0,3.45-.59,4.56-1.78s1.68-2.77,1.68-4.77v-8.65h1.02Z"/>
      <path class="st0" d="M455.63,318.31c-.21-.19-.31-.43-.31-.69,0-.29.1-.53.3-.73s.44-.29.73-.29c.27,0,.51.1.71.29.21.2.31.43.31.69s-.1.5-.31.71c-.21.21-.45.31-.71.31s-.51-.1-.71-.29ZM455.84,322.8h1.02v16.02h-1.02v-16.02Z"/>
      <path class="st0" d="M471.87,337.81c-.37.35-.85.62-1.43.82-.58.2-1.18.29-1.8.29-1.3,0-2.31-.36-3.03-1.1-.71-.73-1.07-1.73-1.07-3.01v-11.12h-3.04v-.9h3.04v-3.52h1.02v3.52h5.31v.9h-5.31v10.96c0,1.09.27,1.92.81,2.5.54.58,1.32.86,2.36.86s1.9-.32,2.61-.96l.53.74Z"/>
      <path class="st0" d="M501.63,324.41c1.13,1.15,1.69,2.82,1.69,5v9.42h-1.02v-9.36c0-1.89-.47-3.34-1.4-4.34s-2.26-1.5-3.97-1.5c-1.92,0-3.46.6-4.59,1.79-1.14,1.19-1.71,2.78-1.71,4.75v8.65h-1.02v-9.36c0-1.89-.47-3.34-1.4-4.34s-2.25-1.5-3.94-1.5c-1.95,0-3.48.59-4.61,1.78-1.13,1.18-1.69,2.77-1.69,4.77v8.65h-1.02v-16.02h.99v3.86c.5-1.23,1.3-2.21,2.41-2.92,1.11-.71,2.44-1.07,3.99-1.07s2.86.37,3.91,1.11c1.06.74,1.76,1.82,2.11,3.24.48-1.34,1.29-2.4,2.45-3.18,1.16-.78,2.56-1.17,4.19-1.17,1.97,0,3.51.58,4.64,1.73Z"/>
      <path class="st0" d="M523.81,330.95h-14.13c.02,1.36.34,2.57.96,3.64s1.48,1.9,2.56,2.5c1.09.6,2.3.9,3.65.9,1.1,0,2.11-.2,3.04-.6s1.7-.99,2.3-1.78l.65.68c-.73.84-1.61,1.49-2.64,1.94-1.04.45-2.15.68-3.35.68-1.57,0-2.98-.34-4.21-1.03-1.23-.69-2.2-1.65-2.9-2.89-.7-1.24-1.06-2.63-1.06-4.2s.33-2.96.98-4.2c.65-1.24,1.56-2.2,2.72-2.89,1.16-.69,2.45-1.03,3.88-1.03s2.69.34,3.83,1.02c1.15.68,2.05,1.63,2.72,2.84.66,1.21.99,2.59.99,4.14v.28ZM513.01,324.44c-.97.56-1.75,1.33-2.33,2.33-.58,1-.9,2.12-.96,3.35h13.13c-.08-1.24-.42-2.35-1.01-3.35-.59-1-1.37-1.78-2.33-2.33-.96-.55-2.04-.83-3.24-.83s-2.29.28-3.26.83Z"/>
      <path class="st0" d="M541.73,324.42c1.16,1.16,1.74,2.82,1.74,4.99v9.42h-1.02v-9.36c0-1.89-.48-3.34-1.44-4.34s-2.33-1.5-4.11-1.5c-2.01,0-3.59.59-4.75,1.78-1.16,1.18-1.74,2.77-1.74,4.77v8.65h-1.02v-16.02h.99v3.92c.52-1.26,1.35-2.24,2.5-2.96,1.15-.72,2.52-1.08,4.11-1.08,2.01,0,3.59.58,4.75,1.74Z"/>
      <path class="st0" d="M558.28,337.81c-.37.35-.85.62-1.43.82-.58.2-1.18.29-1.8.29-1.3,0-2.31-.36-3.03-1.1-.71-.73-1.07-1.73-1.07-3.01v-11.12h-3.04v-.9h3.04v-3.52h1.02v3.52h5.31v.9h-5.31v10.96c0,1.09.27,1.92.81,2.5.54.58,1.32.86,2.36.86s1.9-.32,2.61-.96l.53.74Z"/>
    </g>
  </g>
  <path class="st0" d="M237.89,96.55l41.57-19.95,62.63-31.07-33.34-33.34c-10.42-10.42-24.99-14.16-38.4-11.22l-32.46,95.58Z"/>
  <path class="st0" d="M261.5,3.97c-4.22,1.99-8.18,4.73-11.67,8.22l-59.16,59.16c-16.27,16.27-16.27,42.65,0,58.91l20.86,20.86L261.5,3.97Z"/>
  <path class="st0" d="M274.89,87.08l-39.78,17.66-17.74,52.23,32.46,32.46c16.27,16.27,42.65,16.27,58.91,0l5.86-5.86-39.72-96.49Z"/>
  <path class="st0" d="M347.77,51.22l-66.05,32.82,38.49,93.93,47.7-47.7c16.27-16.27,16.27-42.65,0-58.91l-20.14-20.14Z"/>
</svg>