<?xml version="1.0" encoding="UTF-8"?>
<svg id="Layer_1" xmlns="http://www.w3.org/2000/svg" xmlns:xlink="http://www.w3.org/1999/xlink" version="1.1" viewBox="0 0 467.3 166.9">
  <!-- Generator: Adobe Illustrator 29.2.0, SVG Export Plug-In . SVG Version: 2.1.0 Build 108)  -->
  <defs>
    <style>
      .st0 {
        fill: #fff;
      }
    </style>
  </defs>
  <g>
    <path class="st0" d="M93.8,104.3v-19c0-12.8-9.7-21.8-21.6-26.7,8.4-3.2,17.8-7.7,17.8-17.1v-7.2c0-20.8-26-31.8-50.3-31.8S4.8,8.4,0,20.9l20.4,6.9c0-8.1,10.7-12,22.2-12s26.9,5.1,26.9,15v12.8c0,4.4-3.5,8.1-7.9,8.1h-13.7v-26.7l-20.4,5.3v82.7c11.3,0,20.4-7,20.4-16v-41.4l5.6,10c13.9,3.9,19.9,8.1,19.9,17.4v31.5c0,14.8,15.5,24.1,30.8,26.6l7.4-10.4c-12.7-6.1-17.8-11.9-17.8-26.4Z"/>
    <path class="st0" d="M449.4,95.7v-31.7c0-9-9.1-16-20.4-16h-6.7c-3.5,0-7,1.8-9.5,4.4v-4.4l-20.4,5.3v44.7l-.9,1.8h-13.8v-44.6l-20.5-5.2v49.8h-8.3c-4.4,0-7.9-3.5-7.9-7.9v-25.9c0-9-9.1-16-20.4-16v47.9h-7c-4.4,0-7.7-3.7-7.7-8.1v-25.8c0-9-9.1-16-20.4-16h-6.9c-3.5,0-6.9,1.8-9.3,4.4V0l-20.4,5.3v92.5h-41.5c-4.4,0-7.9-3.5-7.9-7.9v-6.9l7.2,9.7c15.5,0,30.3-13.4,30.3-30.1-3.5-9.3-12.5-16.7-27.1-16.7s-30.4,13.4-30.4,30.1v21.8h-41.6c-4.4,0-7.9-3.5-7.9-7.9v-6.9l7.2,9.7c15.5,0,30.3-13.4,30.3-30.1-3.5-9.3-12.5-16.7-27.1-16.7s-30.4,13.4-30.4,30.1v20.9c0,9,7.2,16,15.8,16h45.7c4.4,0,8.5-2.7,11-6.5,2.9,4,7.6,6.5,12.7,6.5h53.6c11.3,0,20.4-7,20.4-16v-33.7h8.4c4.4,0,7.7,3.5,7.7,7.9v25.9c0,9,9.1,16,20.4,16h6.9c4.2,0,8.1-2.5,10.7-6,3.5,4.8,10.1,8,17.7,8h6.9c3.5,0,6.9-1.9,9.3-4.6v16.2c0,10-2.5,16-8.2,20.8-4.8,4-5.7,11-2,16,15.3-2.5,30.6-11.6,30.6-26.4v-22h6.9c2.3,0,4.4-.7,6.4-1.9h1.5c11.3,0,20.4-7,20.4-16v-33.9h8.4c4.4,0,7.7,3.5,7.7,7.9v34.8c0,14.8,15.5,24.1,30.8,26.6l7.6-10.4c-12.7-6.2-17.9-12-17.9-26.4ZM216.8,56.3c-.2,14.1-4.6,25.7-17.4,26,0-14,4.5-25.6,17.4-26ZM147.3,56.3c-.2,14.1-4.6,25.7-17.4,26,0-14,4.5-25.6,17.4-26Z"/>
  </g>
  <g>
    <path class="st0" d="M131.6,130.9c1.4,0,2.7.2,4,.7,1.2.5,2.3,1.2,3.3,2.2.9,1,1.7,2.2,2.2,3.7s.8,3.2.8,5.2-.3,4-1,5.7c-.6,1.6-1.6,3-2.7,4-1.2,1.1-2.5,1.9-4.2,2.4-1.6.5-3.4.8-5.3.8s-1.2,0-1.7-.1c-.6-.1-1.2-.1-1.8-.2v6.6c0,.9,0,1.7.3,2.3.2.6.4,1.1.7,1.5.3.5.6.8,1,1.1h-10.3c.4-.3.7-.6,1-1.1.3-.4.5-.9.7-1.5s.3-1.4.3-2.3v-25.1c0-.9,0-1.6-.3-2.3-.2-.6-.5-1.1-.7-1.5-.3-.5-.6-.8-1-1.1l8.3-1v2.3c.7-.6,1.5-1.1,2.6-1.6.9-.4,2.3-.7,3.8-.7ZM125.1,152.1c.5.1,1.1.1,1.8.1s1.4,0,2.2-.1c.9-.1,1.7-.4,2.5-.8.8-.4,1.5-1,2.1-1.7s1.1-1.7,1.4-2.8c.4-1.1.5-2.4.5-4s-.2-3-.5-4.1-.8-2-1.3-2.7-1.2-1.2-1.9-1.5-1.5-.4-2.2-.4c-1.1,0-2,.2-2.8.6-.8.4-1.4.8-1.8,1.2,0,0,0,16.2,0,16.2Z"/>
    <path class="st0" d="M157.8,130.9c3.7,0,6.6,1.1,8.6,3.4,2,2.2,3,5.4,3,9.4h-17.8c.1,1.5.3,2.8.7,3.9.4,1.1,1,2,1.7,2.7s1.6,1.2,2.5,1.6c.9.4,2,.5,3,.5,1.6,0,3-.2,4.2-.6,1.2-.4,2.2-.8,3-1.3.9-.6,1.7-1.2,2.4-1.9l-.7,5.2c-.8.3-1.6.6-2.6.9-.9.2-1.9.4-3.1.6-1.2.2-2.6.3-4.2.3s-3.8-.3-5.4-.8c-1.6-.6-3.1-1.4-4.2-2.5-1.2-1.1-2.1-2.4-2.8-4s-1-3.3-1-5.3.3-3.9,1-5.4,1.6-2.8,2.8-3.8,2.5-1.7,4-2.2c1.7-.4,3.3-.7,4.9-.7ZM157.8,133.7c-1.6,0-3,.5-4.1,1.5s-1.8,2.8-2,5.2h11.5c0-.9-.1-1.8-.3-2.6s-.5-1.6-.9-2.2c-.4-.6-1-1.1-1.7-1.5-.6-.2-1.5-.4-2.5-.4Z"/>
    <path class="st0" d="M183.6,131.6c1-.8,2.2-1.2,3.7-1.2s.8,0,1.1.1c.3,0,.6.1.8.1.3.1.5.1.7.2v5.4c-.2-.1-.5-.3-.9-.4-.3-.1-.7-.2-1.1-.3-.4-.1-.9-.1-1.4-.1-1.3,0-2.4.3-3.1,1-.7.7-1.3,1.4-1.6,2.2s-.5,1.6-.6,2.2c0,.7-.1,1-.1,1.1v8.3c0,.9.1,1.7.3,2.3s.4,1.1.7,1.5c.3.5.6.8,1,1.1h-10.1c.4-.3.7-.6,1-1.1.3-.4.5-.9.7-1.5s.3-1.4.3-2.3v-14.4c0-.9-.1-1.6-.3-2.3-.2-.6-.5-1.1-.7-1.5-.3-.5-.6-.8-1-1.1h8.3v3.4c.6-1,1.4-1.9,2.3-2.7Z"/>
    <path class="st0" d="M204.7,118.9c.8,0,1.5,0,2.2.2s1.3.2,1.8.3c.6,0,1.1.3,1.6.4v5c-.4-.4-.8-.8-1.2-1.1-.4-.3-.9-.5-1.4-.8s-1.1-.4-1.8-.4-1.6.3-2.1.8-.7,1.4-.7,2.6v4.9h6.6v4c-.3-.1-.7-.3-1.1-.4-.4-.1-.9-.2-1.5-.3s-1.4-.1-2.3-.1h-1.7v16.1c0,.9.1,1.7.3,2.3s.4,1.1.7,1.5c.3.5.6.8,1,1.1h-10.3c.3-.3.6-.6.9-1,.3-.4.5-.8.7-1.4.2-.6.3-1.3.4-2.1v-16.5h-3.4l1.4-3.2h2v-4.4c0-2.6.7-4.5,2.2-5.7,1.5-1.2,3.4-1.8,5.7-1.8Z"/>
    <path class="st0" d="M238.9,132.1c-.3.4-.5.9-.7,1.5s-.3,1.4-.3,2.3v14.4c0,.9.1,1.7.3,2.3s.4,1.1.7,1.5c.3.5.6.8,1,1.1h-5.4c-.6,0-1.1-.1-1.4-.3-.4-.2-.7-.5-.9-.8s-.4-.6-.4-.9c-.1-.3-.1-.6-.1-.7-.4.4-.8.7-1.3,1.1-.5.4-1,.8-1.6,1.1s-1.3.6-2.1.8-1.7.3-2.6.3c-3,0-5.2-.9-6.6-2.7-1.5-1.8-2.2-4.4-2.2-7.9v-9.2c0-.9-.1-1.6-.3-2.3-.2-.6-.5-1.1-.7-1.5-.3-.5-.6-.8-1-1.1h10.3c-.4.3-.7.7-1,1.1-.3.4-.5.9-.7,1.5s-.3,1.4-.3,2.3v10.2c0,2.3.4,3.9,1.3,4.9.9,1,2,1.5,3.3,1.5s2-.2,2.8-.6c.7-.4,1.3-.9,1.7-1.4s.7-1.1.9-1.7c.2-.6.3-1,.3-1.3v-11.5c0-.9-.1-1.6-.3-2.3-.2-.6-.5-1.1-.7-1.5-.3-.5-.6-.8-1-1.1h10.1c-.4,0-.8.4-1.1.9Z"/>
    <path class="st0" d="M281.3,152.5c.2.6.5,1.1.7,1.5.3.5.6.8,1,1.1h-10.4c.4-.3.7-.6,1-1.1.3-.4.5-.9.7-1.5s.3-1.4.3-2.3v-10.2c0-2.1-.3-3.6-.9-4.5s-1.4-1.4-2.6-1.4-1.9.3-2.5.9c-.6.6-1.1,1.3-1.5,2.1-.4.9-.7,1.9-.9,3v10.1c0,.9.1,1.7.3,2.3.2.6.4,1.1.7,1.5.3.5.6.8,1,1.1h-10.4c.4-.3.7-.6,1-1.1.3-.4.5-.9.7-1.5s.3-1.4.3-2.3v-10.2c0-3.9-1.2-5.9-3.5-5.9s-1.8.3-2.5.8c-.6.5-1.2,1.1-1.5,1.7-.4.7-.7,1.5-.9,2.4v11.2c0,.9.1,1.7.3,2.3s.4,1.1.7,1.5c.3.5.6.8,1,1.1h-10.3c.4-.3.7-.6,1-1.1.3-.4.5-.9.7-1.5s.3-1.4.3-2.3v-13.3c0-.9-.1-1.7-.3-2.3s-.5-1.1-.7-1.5c-.3-.5-.6-.8-1-1.1l8.3-1v3.3c.3-.4.7-.8,1.2-1.2.4-.4,1-.7,1.5-1,.6-.3,1.2-.6,1.9-.8s1.4-.3,2.2-.3c1.7,0,3.1.3,4.3,1,1.2.7,2.1,1.8,2.7,3.3.3-.4.7-.9,1.1-1.4.5-.5,1-1,1.6-1.4s1.4-.8,2.2-1.1c.8-.3,1.7-.4,2.7-.4,2.6,0,4.5.8,5.9,2.4,1.3,1.6,2,4.2,2,7.7v9.2c.3.8.4,1.6.6,2.2Z"/>
    <path class="st0" d="M298.6,130.9c3.7,0,6.6,1.1,8.6,3.4,2,2.2,3,5.4,3,9.4h-17.8c.1,1.5.3,2.8.7,3.9.4,1.1,1,2,1.7,2.7s1.6,1.2,2.5,1.6c.9.4,2,.5,3,.5,1.6,0,3-.2,4.2-.6,1.2-.4,2.2-.8,3-1.3.9-.6,1.7-1.2,2.4-1.9l-.7,5.2c-.8.3-1.6.6-2.6.9-.9.2-1.9.4-3.1.6-1.2.2-2.6.3-4.2.3s-3.8-.3-5.4-.8c-1.6-.6-3.1-1.4-4.2-2.5-1.2-1.1-2.1-2.4-2.8-4-.7-1.6-1-3.3-1-5.3s.3-3.9,1-5.4,1.6-2.8,2.8-3.8c1.2-1,2.5-1.7,4-2.2,1.7-.4,3.2-.7,4.9-.7ZM298.5,133.7c-1.6,0-3,.5-4.1,1.5s-1.8,2.8-2,5.2h11.6c0-.9-.1-1.8-.3-2.6-.2-.8-.5-1.6-.9-2.2-.4-.6-1-1.1-1.7-1.5-.7-.2-1.5-.4-2.6-.4Z"/>
    <path class="st0" d="M319.9,135.6c0,.7.3,1.4,1,1.9s1.5,1.1,2.5,1.6l3.2,1.6c1.1.5,2.2,1.2,3.2,1.9s1.8,1.5,2.5,2.4,1,2,1,3.3-.3,2.2-.8,3.1c-.5.9-1.3,1.6-2.2,2.2-.9.6-2,1-3.2,1.3s-2.6.4-4,.4-2.8-.1-3.9-.3-2-.5-2.8-.7c-.9-.3-1.6-.6-2.3-1l-.4-5.7c.8.9,1.6,1.6,2.5,2.3.8.6,1.7,1.1,2.7,1.5,1,.5,2.2.7,3.5.7s2.6-.2,3.4-.7,1.2-1.2,1.2-2.2-.3-1.6-1-2.2c-.6-.6-1.5-1.2-2.4-1.8-1-.5-2-1.1-3.2-1.6-1.1-.5-2.2-1.2-3.2-1.8-1-.7-1.8-1.4-2.4-2.3-.6-.9-1-1.9-1-3.1s.2-1.6.5-2.3c.4-.7.9-1.4,1.6-2s1.7-1,2.8-1.4c1.1-.4,2.5-.5,4.1-.5s2.1.1,3.2.3c1,.2,1.9.4,2.7.7.9.3,1.7.6,2.5,1v4.6c-.6-.6-1.4-1.1-2.2-1.6-.7-.4-1.5-.8-2.5-1.2-1-.3-2-.5-3.2-.5s-2,.2-2.6.6c-.5.4-.8.9-.8,1.5Z"/>
  </g>
</svg>