<?xml version="1.0" encoding="UTF-8"?>
<svg id="Layer_1" xmlns="http://www.w3.org/2000/svg" xmlns:xlink="http://www.w3.org/1999/xlink" version="1.1" viewBox="0 0 98.7 52.21">
  <!-- Generator: Adobe Illustrator 29.2.1, SVG Export Plug-In . SVG Version: 2.1.0 Build 116)  -->
  <defs>
    <style>
      .st0 {
        fill: #fff;
      }
    </style>
  </defs>
  <g>
    <path id="Path_4" class="st0" d="M20.24,30.13c-.38-.94-1.45-1.39-2.39-1-.05.02-.1.05-.15.07-.27.14-.5.33-.69.57-.2.26-.36.55-.46.86-.12.34-.17.69-.17,1.05-.03.56.16,1.11.53,1.53.39.38.93.58,1.47.55.27,0,.54-.04.8-.13.24-.08.46-.2.66-.36v1c0,.19-.31.33-.94.43-.63.1-11.32.14-12.56.14h-.32c-.36.03-.71-.06-1.01-.26-.23-.23-.34-.55-.3-.88l.06-4.83-1.12.2v.87c-.97.16-1.89.55-2.68,1.12C.36,31.49,0,32.19,0,32.93c0,.55.24,1.08.68,1.42.22.17.47.29.73.37.29.09.6.13.9.13.49.01.98-.11,1.41-.34.16,1.07.93,1.61,2.29,1.61h.33c.5,0,10.71,0,11.09-.02s.72-.04,1.01-.08c.26-.03.51-.08.76-.14.2-.05.4-.12.59-.21.34-.15.62-.41.78-.75.17-.46.25-.94.23-1.43.06-1.15-.13-2.3-.58-3.36M19.22,32.57c-.23.07-.48.1-.72.1-.33.02-.65-.07-.92-.27-.22-.2-.34-.5-.32-.8-.01-.37.12-.72.36-1,.22-.26.54-.41.88-.41.36,0,.7.18.88.5.25.5.39,1.05.41,1.61-.17.13-.36.22-.56.27M2.49,33.61c-.19,0-.39-.02-.58-.05-.17-.03-.34-.08-.49-.16-.13-.06-.25-.16-.34-.28-.09-.13-.13-.28-.12-.43,0-.21.08-.42.22-.58.17-.19.37-.35.6-.47.27-.15.56-.26.86-.34.33-.09.67-.16,1.01-.19l.02,2.29c-.38.14-.79.21-1.2.2"/>
    <path id="Path_5" class="st0" d="M37.62,28.46l-.88-.9-.88.9.88.9.88-.9Z"/>
    <path id="Path_6" class="st0" d="M39.7,28.46l-.88-.9-.88.9.88.9.88-.9Z"/>
    <path id="Path_7" class="st0" d="M54.24,28.24l-.88-.9-.88.9.88.9.88-.9Z"/>
    <path id="Path_8" class="st0" d="M54.39,30.97l.88-.9-.88-.9-.88.9.88.9Z"/>
    <path id="Path_9" class="st0" d="M53.2,30.07l-.88-.9-.88.9.88.9.88-.9Z"/>
    <path id="Path_10" class="st0" d="M66.65,27.13l.04,6.98c0,.13-.05.25-.15.34-.11.1-.24.18-.39.23-.17.06-.35.1-.53.12-.2.02-10.15.04-10.36.04-1.13,0-1.69-.29-1.69-.88,0-.07.02-.28.06-.61s.08-.7.13-1.1l-.97-.11c-.02.12-.04.27-.06.43s-.04.32-.07.48-.06.32-.08.48-.05.29-.07.39c-.06.31-.27.58-.56.71-.3.14-10.51.21-11.14.21h0c-.28,0-.56,0-.81-.01s-.49-.02-.71-.04c.48-.45.75-1.08.74-1.74,0-.34-.06-.67-.18-.99-.11-.29-.28-.56-.48-.8-.2-.22-.44-.41-.71-.54-.54-.27-1.18-.27-1.72,0-.27.13-.51.32-.71.54-.21.24-.37.51-.48.8-.12.32-.18.65-.18.99-.02.66.25,1.29.74,1.74-.23.02-.47.03-.73.04-.26.01-10.29.01-10.56.01-.35.03-.71-.06-1-.26-.23-.23-.34-.55-.31-.88l.06-6.76-1.12.2.06,6.99c.02,1.33.79,1.99,2.32,1.99.53,0,10.82-.04,11.33-.13.49-.08.98-.2,1.45-.37.47.17.96.29,1.45.37.52.09,1.04.13,1.57.13.6,0,10.88-.08,11.31-.25.38-.12.71-.37.93-.7.51.7,1.36,1.07,2.22.95h0c.35,0,10.44-.04,10.76-.11.3-.07.59-.19.85-.36.25-.17.46-.39.61-.65.17-.31.25-.65.24-1l.06-7.06-1.13.19ZM37.78,34.49c-.87-.28-1.31-.75-1.31-1.41,0-.36.13-.7.38-.95.12-.12.26-.22.42-.29.33-.13.7-.13,1.03,0,.16.06.3.16.42.29.25.26.38.6.38.95,0,.65-.44,1.12-1.31,1.41"/>
    <path id="Path_11" class="st0" d="M69.64,36.11l-.07-8.99,1.12-.2-.07,9.18h-.98Z"/>
    <path id="Path_12" class="st0" d="M79.75,33.98c.03.61-.21,1.21-.65,1.63-.5.42-1.14.64-1.79.61-.67.05-1.32-.16-1.84-.59-.44-.45-.67-1.07-.63-1.7,0-.45.06-.89.2-1.32.12-.39.3-.76.53-1.09.21-.3.47-.55.78-.74.28-.18.61-.27.95-.27.34,0,.67.09.96.27.31.19.57.44.78.74.23.34.41.71.52,1.1.13.44.2.9.19,1.36M76.25,29.36l-.88-.9.88-.9.88.9-.88.9ZM78.79,34.1c0-.31-.03-.62-.11-.92-.06-.26-.17-.5-.31-.73-.12-.19-.28-.35-.47-.48-.18-.11-.39-.17-.6-.17-.2,0-.4.05-.58.15-.19.1-.35.24-.48.41-.14.18-.25.38-.32.6-.08.23-.12.48-.12.73-.02.35.12.7.38.93.32.23.71.35,1.11.32.19,0,.38-.02.57-.06.17-.04.32-.1.47-.18.12-.07.23-.16.32-.27.08-.09.12-.2.12-.32M78.33,29.36l-.88-.9.88-.9.88.9-.88.9Z"/>
    <path id="Path_13" class="st0" d="M79.35,37.83c.49-.18.97-.4,1.42-.65.4-.22.78-.48,1.13-.78.29-.24.54-.51.75-.82.17-.23.26-.5.27-.78,0-.2-.04-.39-.1-.58-.08-.26-.17-.52-.28-.78-.12-.28-.26-.57-.42-.88-.16-.3-.33-.6-.51-.88l1.02-.57c.4.54.72,1.13.94,1.77.22.58.33,1.19.34,1.81-.01.92-.38,1.8-1.02,2.46-.81.82-1.8,1.44-2.89,1.8l-.65-1.12Z"/>
    <path id="Path_14" class="st0" d="M85.89,36.11l-.07-8.99,1.12-.2-.07,9.18h-.98Z"/>
    <path id="Path_15" class="st0" d="M87.65,37.83c.49-.18.97-.4,1.42-.65.4-.22.78-.48,1.13-.78.29-.24.54-.51.75-.81.17-.23.26-.5.27-.78,0-.2-.04-.39-.1-.58-.08-.26-.17-.52-.28-.78-.12-.28-.26-.57-.42-.88-.16-.3-.33-.6-.51-.88l1.02-.57c.4.54.72,1.13.94,1.77.22.58.33,1.19.34,1.81-.01.92-.38,1.8-1.02,2.46-.81.82-1.8,1.44-2.89,1.8l-.65-1.12ZM90.26,29.97l-.88-.9.88-.9.88.9-.88.9Z"/>
    <path id="Path_16" class="st0" d="M94.09,37.79c2.05-.29,3.23-1.03,3.55-2.24-.2.15-.42.26-.66.33-.26.08-.53.12-.8.11-.58.02-1.13-.22-1.51-.65-.4-.48-.6-1.1-.57-1.72,0-.37.05-.75.17-1.1.1-.32.26-.61.47-.88.19-.24.44-.44.71-.58.28-.14.59-.21.9-.21.72-.01,1.38.37,1.73,1,.46.87.67,1.85.62,2.83,0,.54-.09,1.08-.29,1.58-.19.48-.47.91-.83,1.28-.37.38-.81.69-1.29.92-.53.25-1.1.42-1.68.49l-.52-1.17ZM96.35,34.84c.26,0,.52-.04.78-.11.21-.06.41-.15.59-.28,0-.6-.15-1.2-.42-1.74-.3-.56-1-.78-1.57-.48-.13.07-.25.16-.34.28-.24.31-.37.69-.35,1.08-.02.34.1.68.35.93.27.23.61.35.96.33"/>
    <path id="Path_17" class="st0" d="M.39,41.18h1.16l2.55,4.36,2.55-4.36h1.13l.39,8.38h-1.18l-.28-6.43-2.36,3.95h-.6l-2.32-3.9-.29,6.38H0l.39-8.38Z"/>
    <path id="Path_18" class="st0" d="M10.22,41.14l.9.9-.9.9-.9-.9.9-.9ZM9.66,43.71h1.13v5.84h-1.13v-5.84Z"/>
    <path id="Path_19" class="st0" d="M12.4,49.55v-5.47c0-.08,0-.2-.01-.37h1.08l.04.88c.08-.1.17-.21.28-.33.12-.13.25-.24.4-.33.17-.11.36-.19.56-.25.23-.07.48-.1.72-.1.64-.05,1.27.19,1.7.67.39.52.59,1.16.55,1.81v3.5h-1.13v-3.42c.04-.43-.09-.86-.35-1.2-.26-.27-.62-.4-.99-.38-.54-.03-1.06.25-1.34.72-.14.22-.23.47-.28.73-.06.27-.09.55-.09.83v2.71h-1.13Z"/>
    <path id="Path_20" class="st0" d="M19.63,41.14l.9.9-.9.9-.9-.9.9-.9ZM19.08,43.71h1.13v5.84h-1.13v-5.84Z"/>
    <path id="Path_21" class="st0" d="M22.09,48.08c.22.21.47.38.75.5.32.13.67.19,1.02.19.32.01.65-.05.94-.18.23-.09.38-.32.38-.57,0-.12-.02-.24-.08-.35-.07-.11-.16-.2-.28-.26-.16-.09-.34-.16-.51-.21-.21-.06-.48-.13-.8-.21-.23-.05-.45-.12-.67-.2-.22-.08-.42-.19-.6-.33-.18-.14-.32-.31-.43-.5-.11-.22-.17-.46-.16-.71,0-.26.06-.52.19-.75.13-.22.31-.4.52-.54.23-.15.47-.26.74-.33.28-.08.56-.11.85-.11.43,0,.86.06,1.27.19.34.12.66.31.94.55l-.62.78c-.2-.17-.42-.31-.66-.4-.29-.11-.61-.17-.92-.16-.3-.01-.6.05-.87.18-.22.11-.34.34-.33.58.01.26.19.48.44.55.37.15.75.26,1.13.35.26.06.52.14.77.23.23.08.44.19.63.34.18.14.32.31.43.51.11.23.16.48.16.73,0,.27-.06.54-.2.77-.14.22-.32.41-.54.56-.24.16-.5.27-.78.34-.3.08-.61.11-.92.11-.92.07-1.82-.25-2.49-.89l.69-.75Z"/>
    <path id="Path_22" class="st0" d="M28.14,44.65h-1.05v-.94h1.06v-1.91h1.13v1.91h1.71v.94h-1.71v2.88c-.03.34.04.68.22.97.16.18.39.28.62.26.18,0,.37-.03.54-.1.16-.08.3-.18.43-.3l.51.69c-.22.22-.47.39-.75.51-.29.11-.6.16-.91.16-.51.05-1.01-.14-1.36-.5-.33-.46-.48-1.01-.43-1.57v-2.99Z"/>
    <path id="Path_23" class="st0" d="M32.56,49.55v-5.47c0-.07,0-.2-.01-.36h1.08l.04.94c.08-.12.17-.23.26-.33.12-.13.25-.24.4-.33.17-.11.35-.19.54-.26.23-.08.47-.11.71-.11.12,0,.23,0,.35.03.1.02.2.04.3.08l-.25,1.05c-.19-.06-.38-.09-.58-.09-.23,0-.46.04-.67.14-.2.09-.38.22-.53.38-.32.34-.49.79-.49,1.26v3.08h-1.14Z"/>
    <path id="Path_24" class="st0" d="M37.36,50.98c.09.08.18.14.29.2.12.06.26.09.4.09.12,0,.24-.03.35-.09.11-.07.2-.16.26-.27.09-.14.16-.29.22-.44.07-.17.15-.37.25-.6l.15-.38-2.61-5.79h1.3l1.88,4.41,1.66-4.41h1.23l-2.33,5.69c-.11.27-.22.56-.33.88-.11.32-.25.63-.42.92-.16.28-.37.52-.61.72-.26.2-.59.3-.92.29-.25,0-.5-.03-.74-.12-.19-.08-.37-.18-.53-.32l.51-.79Z"/>
    <path id="Path_25" class="st0" d="M48.3,49.72c-.43,0-.85-.08-1.24-.25-.37-.16-.7-.38-.97-.67-.27-.29-.49-.62-.64-.99-.31-.77-.31-1.63,0-2.4.15-.37.37-.7.64-.99.28-.29.61-.52.97-.67.79-.33,1.68-.33,2.47,0,.37.16.7.39.98.67,1.18,1.22,1.18,3.15,0,4.37-.28.29-.61.52-.98.67-.39.17-.81.25-1.23.25M48.3,48.74c.28,0,.56-.06.82-.18.24-.12.44-.28.61-.48.17-.2.3-.43.38-.68.09-.25.13-.52.13-.79,0-.26-.05-.52-.13-.77-.09-.25-.22-.48-.39-.68-.17-.2-.38-.36-.62-.48-.25-.12-.53-.19-.81-.18-.28,0-.56.06-.82.18-.24.12-.45.28-.62.48-.17.2-.3.43-.38.68-.09.25-.13.52-.13.79,0,.26.04.53.13.78.09.25.22.48.39.68.17.2.38.37.61.48.25.12.53.19.81.18"/>
    <path id="Path_26" class="st0" d="M53.1,44.65h-1.06v-.94h1.06v-.48c0-.35.05-.7.17-1.02.1-.27.25-.51.45-.71.18-.18.4-.32.65-.41.25-.09.5-.13.77-.13.31,0,.62.05.91.14.31.1.59.27.82.5l-.57.73c-.27-.25-.63-.38-.99-.39-.29-.01-.58.1-.79.31-.23.31-.34.7-.3,1.08v.38h1.67v.94h-1.67v4.9h-1.13v-4.9Z"/>
    <path id="Path_27" class="st0" d="M66.77,48.08c-.12.19-.27.36-.43.51-.21.21-.45.39-.7.55-.3.18-.62.33-.95.43-.39.12-.79.18-1.19.18-.58,0-1.16-.1-1.7-.33-.5-.21-.95-.52-1.32-.91-.38-.4-.67-.87-.86-1.38-.41-1.12-.41-2.34,0-3.46.19-.52.49-1,.86-1.41.37-.4.82-.73,1.32-.95.54-.24,1.13-.35,1.71-.35.4,0,.81.05,1.19.16.32.1.63.23.92.41.25.15.47.33.68.53.17.17.32.36.46.55l-.85.73c-.11-.16-.23-.3-.36-.45-.15-.16-.32-.3-.5-.42-.21-.13-.43-.24-.66-.31-.28-.09-.57-.13-.87-.12-.83-.01-1.62.35-2.16.98-.26.31-.46.67-.58,1.06-.14.41-.2.85-.2,1.28,0,.43.07.86.21,1.27.13.38.33.73.58,1.04.25.29.56.53.92.69.38.17.79.26,1.21.25.33,0,.66-.04.97-.14.25-.08.48-.2.69-.35.17-.12.33-.25.46-.41.12-.14.23-.25.31-.35l.83.7Z"/>
    <path id="Path_28" class="st0" d="M67.96,43.71h1.13v3.43c-.04.43.08.85.34,1.2.26.26.61.39.98.37.28.01.57-.06.81-.2.21-.13.39-.31.52-.52.14-.22.23-.47.28-.73.05-.28.08-.55.08-.83v-2.71h1.13v5.48c0,.12,0,.24.01.36h-1.09l-.04-.87c-.09.11-.18.22-.28.33-.12.12-.25.23-.4.32-.17.1-.36.19-.55.25-.23.07-.47.1-.71.1-.63.05-1.25-.19-1.68-.66-.39-.52-.58-1.16-.54-1.8v-3.51Z"/>
    <rect id="Rectangle_1" class="st0" x="74.78" y="41.17" width="1.13" height="8.38"/>
    <path id="Path_29" class="st0" d="M77.96,44.65h-1.05v-.94h1.05v-1.91h1.13v1.91h1.71v.94h-1.71v2.88c-.03.34.04.68.22.97.16.18.39.28.62.26.18,0,.37-.03.54-.1.16-.08.3-.18.43-.3l.51.69c-.43.45-1.03.69-1.66.67-.51.05-1.01-.14-1.36-.5-.33-.46-.48-1.01-.43-1.57v-2.99Z"/>
    <path id="Path_30" class="st0" d="M82.11,43.71h1.13v3.43c-.04.43.08.85.34,1.2.26.26.61.39.98.37.28.01.56-.06.81-.2.21-.13.39-.31.52-.52.14-.22.23-.47.28-.73.05-.28.08-.55.08-.83v-2.71h1.13v5.48c0,.12,0,.24.01.36h-1.08l-.04-.87c-.09.11-.18.22-.28.33-.12.12-.25.23-.4.32-.17.1-.36.19-.55.25-.23.07-.47.1-.71.1-.63.05-1.25-.19-1.68-.66-.39-.52-.58-1.16-.54-1.8v-3.51Z"/>
    <path id="Path_31" class="st0" d="M88.96,49.55v-5.47c0-.07,0-.2-.01-.36h1.08l.04.94c.08-.12.17-.23.26-.33.12-.13.25-.24.4-.33.17-.11.35-.19.54-.26.23-.07.47-.11.71-.11.12,0,.23,0,.35.03.1.02.2.04.3.08l-.25,1.05c-.41-.13-.85-.12-1.25.05-.2.09-.38.22-.53.38-.32.34-.49.79-.49,1.26v3.08h-1.14Z"/>
    <path id="Path_32" class="st0" d="M98.54,48.69c-.09.1-.19.2-.3.29-.16.13-.33.25-.52.34-.24.12-.49.21-.75.28-.32.08-.65.12-.99.12-.42,0-.85-.07-1.24-.23-.36-.14-.69-.36-.97-.64-.27-.28-.48-.62-.62-.99-.15-.41-.23-.84-.22-1.28,0-.41.07-.82.21-1.2.42-1.13,1.5-1.87,2.7-1.85.45-.01.89.09,1.29.29.35.18.65.45.88.77.24.33.41.7.51,1.09.11.42.16.85.16,1.28h-4.61c0,.25.06.49.17.72.1.21.25.41.42.57.18.16.38.29.6.38.23.09.47.14.72.14.42.02.84-.07,1.22-.25.26-.12.49-.29.69-.49l.64.68ZM97.52,46.12c-.02-.43-.19-.83-.48-1.15-.31-.33-.75-.5-1.21-.48-.25,0-.49.04-.72.14-.2.09-.39.21-.55.36-.15.15-.27.33-.35.52-.08.19-.13.4-.14.61h3.44Z"/>
  </g>
  <g>
    <path id="Path_1" class="st0" d="M50.33,20.64l-.6-.62-.6.62.6.62.6-.62Z"/>
    <path id="Path_2" class="st0" d="M48.91,20.64l-.6-.62-.6.62.6.62.6-.62Z"/>
    <path id="Path_3" class="st0" d="M60.48,20.59l-.6-.62-.6.62.6.62.6-.62Z"/>
    <path id="Path_33" class="st0" d="M68.02,2.62c-.42,5.72.09,11.41-.04,17.18-.02,1.06.11,2.19.03,3.26,0,.13-.04.22-.24.22-.26-.04-.53-.04-.79,0-.09-.76-.05-1.36-.12-2.01-.1-1.39-.12-2.78-.08-4.17-.02-2.68-.25-5.4-.05-8.08.07-1.16.08-2.31.03-3.47-.07-.97-.08-1.95-.04-2.93.43-.06.87-.06,1.3,0"/>
    <path id="Path_34" class="st0" d="M20.55,1.01c.47.05.67.19.71.71.05.78-.06,1.21.02,1.98.28,2.56-.32,5.15-.05,7.71.14,1.35,0,2.57.05,3.93.07,2.02-.02,4.31-.07,6.68h-6.3c-.18-.75-.22-1.53-.11-2.3.05-.36.07-.73.05-1.09-.01-1.49.08-2.81.07-4.3.01-.88-.04-1.75-.16-2.62-.13-.76.07-2.1-.04-2.87-.15-.97-.22-6.71-.17-7.81,0,0,5.26-.11,6-.04"/>
    <path id="Path_35" class="st0" d="M32.1,2.35c-.36-.14-.31.29-.3.52,0,.21,0,.34,0,.62,0,.55.04,2.06.05,2.61.01.92.07,1.71.05,2.44-.03,1.36-.04,2.72.02,4.07.14,3.38-.02,6.77.08,10.13,0,.29.19.37.46.44l.39.06c-.01-2.88.21-5.89.03-8.76-.08-1.2-.03-2.39-.03-3.59,0-1.15,0-2.3.01-3.45.01-.7,0-1.4-.02-2.09-.03-.87.02-2.53-.21-2.76-.14-.14-.28-.13-.52-.22"/>
    <path id="Path_36" class="st0" d="M25.88,20.87c.38,0,.31-.29.31-.52,0-.21.05-.34.05-.62.01-.56-.03-2.08-.03-2.63,0-.92-.06-1.73-.04-2.46.04-1.37.05-2.74,0-4.1-.12-3.41.06-6.82-.02-10.21,0-.29-.2-.31-.53-.32l-.46.02c0,2.9.03,5.99.07,9.08.02,1.21,0,2.15,0,3.36s.02,2.09.02,3.25c0,.62-.03,1.29-.03,2.15,0,.87-.05,2.52.16,2.78.12.16.31.25.52.23"/>
    <path id="Path_37" class="st0" d="M34.17,22.65c-.35-.04-.4-.2-.39-.6.03-1.19-.04-3.72-.17-5.27-.11-1.41-.08-2.83.09-4.23.04-.96.03-1.92-.05-2.87,0-1.57.09-2.79.08-3.85,0-.65-.02-1.3-.06-1.95-.03-.61-.02-1.95-.02-2.1.18-.03.37-.03.56-.02.26.01.51.08.74.19.11.88.14,1.77.1,2.66,0,.43-.03,2.21,0,2.63.05.71.02,1.43.03,2.14,0,.91.06,1.82.06,2.72,0,1.15-.1,2.3-.12,3.45-.05,2.12.22,4.86.19,6.64,0,.35.04.54-.34.54,0,0-.36-.04-.71-.09"/>
    <path id="Path_38" class="st0" d="M66.08,21.68c.07-.88-.12-2.24-.12-2.95,0-.42-.05-2.13-.02-2.55.04-.68.01-1.38.01-2.07,0-.88.05-1.76.04-2.64-.01-1.12-.12-2.23-.16-3.34-.08-2.32.26-5.4.12-7.04-.69-.13-1.39-.17-2.09-.14-.16,1.38-.2,2.78-.12,4.17.02,1.02-.08,2.21-.05,3.73.02,1.15.31,2.53.19,3.46-.17,1.36-.2,2.73-.06,4.09.19,1.94.12,5.13.14,5.17l2.12.11Z"/>
    <path id="Path_39" class="st0" d="M72.21,21.73c.09-2.4.08-3.85.12-5.93.03-1.46-.21-3.32-.18-4.86.09-2.14.05-4.28-.14-6.42-.05-.59.03-1.7.01-2.3-.02-.4-.03-.91-.04-1.31,1.13.23,2.3.27,3.44.1,2.39-.5,6.36.02,6.36.02.19.5.28,1.03.26,1.57-.06.95-.07,1.9-.02,2.85.06,1.63-.25,3.08-.25,5.38,0,1.51.23,2.51.28,3.52.05,1.04-.13,1.91-.06,3.56.04,1.02.02,3.68.03,3.92,0,0-7.13.04-8.65-.14-.38-.07-.78-.06-1.16.03"/>
    <path id="Path_40" class="st0" d="M59.16.06c.04,3.58.07,7.56.25,10.8.06,1.08.03,2.43.07,3.67.02.55-.08,1.64-.12,2.37-.03.59-.02,1.18,0,1.77.03.65.02,1.31-.03,1.96-.39-.06-.78-.06-1.16,0-.08-.47-.1-.96-.04-1.43.07-4.3-.22-7.44-.15-11.41.02-1.29-.02-3.04-.12-4.32-.08-1.15-.05-2.31.09-3.46.41,0,.81.01,1.22.06"/>
    <path id="Path_41" class="st0" d="M71.14.25c.11,1.85.02,3.07.06,4.66.03,1.4.19,2.59.1,4.19-.07,1.38.07,2.77.1,4.16.03,1.35.05,2.7.07,4.05.02,1.04.05,1.99.05,3.04,0,.18-.02.55-.02.72-.24-.04-.48-.05-.73-.04-.62.06-1.25.03-1.87-.08-.22-.05-.04-3.69-.03-4.03.02-1.37.03-2.74.02-4.1,0-1.39-.14-2.86-.16-4.24-.03-1.4.05-2.71.01-4.12-.04-1.41-.08-2.62-.12-4.03,0-.29.26-.44.72-.31.61.17,1.24-.03,1.79.14"/>
    <path id="Path_42" class="st0" d="M23.66,1.99c.44.09.76.48.74.93.01.68,0,1.28-.02,1.87-.02.66-.04,1.3-.03,2.02.04,2.92.16,5.72.03,8.75-.11,2.57.13,5.07.1,7.42-.78-.04-1.71-.11-2.46-.15.21-4.34.08-8.45.03-12.97-.03-2.54.39-4.52.03-7.91.52-.05,1.05-.03,1.57.04"/>
    <path id="Path_43" class="st0" d="M57.21,11.63c-.05-1.55-.04-4.47.07-6.02.13-1.73-.3-4.34-1.25-4.29-.86-.01-1.72.02-2.58.09-.67.03-1.53.04-2.19.1-.81.03-1.62.01-2.42-.05-1.44,0-2.67.12-4.11.12-1.39,0-2.94-.04-4.33-.14-1.38-.16-2.77-.24-4.16-.25-.2,0-.31.88-.35,1.96-.04,1.04-.1,3.28-.02,4.36.54-.67,1.34-1.09,2.21-1.15.67-.08,1.35-.07,2.03.01-.25-.3-.54-.57-.86-.8-.22-.21-.5-.35-.8-.42-.37-.05-.75-.02-1.12-.04.47-.55,1.2-.81,1.91-.68.63.09,1.67,1.17,2.05.88.42-.33.26-1.63.81-1.77.45-.11.75,1.61.97,1.99.51-.66,1.26-1.1,2.09-1.21.43-.05,1.75.11,1.93.74-1.06-.15-2.12.32-2.73,1.2,1.41-.6,3.03-.38,4.23.57.31.25.58.54.81.87.23.25.33.59.29.92-.55-.11-1.06-1.05-2.01-1.35-.8-.23-1.65-.21-2.44.05,1.8.29,4.3,2.69,3.44,4.66-.28.64-.36.21-.45-.32-.08-.51-.28-1-.6-1.41-.26-.35-.55-.69-.87-.99-.46-.36-1.01-.58-1.59-.65,1.16.33,1.91,2.64,2.01,2.89.2.62.28,1.27.25,1.92,0,.37.04,1.64-.43,1.76,0,0,.08-3.09-2.11-4.85.5,1.04.69,2.2.55,3.34-.02.59-.16,1.17-.41,1.7-.06.12-.29.69-.38.71-.29.07-.14-1.73-.18-2.04-.05-.39-.76-3.04-1.51-2.39-.38.33-.19,1.82-.14,2.48.06.81.15,2,.17,2.82,0,1.53.1,3.06.3,4.58,1.94-1.05,10.49-5.43,11.71-1.81,0,.11-.07.03-.07.03h0c-.84-1.25-3.12-.61-4.26-.25-2.03.67-3.98,1.57-5.82,2.67,3.02,0,7.68,0,11.14,0,.78,0,1.4-.63,1.4-1.4,0-.02,0-.03,0-.05-.02-.58-.03-1.28-.03-2.04,0-.85.04-1.78.07-2.63.05-1.7-.18-2.71-.24-4.41M40.24,13.41c-.12.44-.27,1.19-.29,1.38s-.18,1.25-.18,1.25c-.07-.05-.12-.12-.14-.19-.27-.81-.39-1.67-.34-2.52.15-2.42,1.01-3.07,1.02-3.06-.39-.22-1.17.69-1.58,1.27-.55.77-.45,1.3-.52,2.49-.29-.06-.58-.55-.6-.91-.12-1.61.48-3.2,1.64-4.32-.42.01-.84.08-1.25.22-.72.29-1.3.85-1.64,1.55-.77,1.49-.28,3.27-.38,4.9-.06.94.08,1.87.07,2.81,0,.71-.19.84.52.91.28.03.56.07.84.13,1.61.33,3.07,1.15,4.19,2.35.19-2.17.21-4.18.21-6.36,0-.86.14-2.71-.43-3.45s-.99,1.09-1.12,1.58M36.14,19.76c-.04.84.01,1.53.03,2.51.72-.03,1.44,0,2.15.07.8.05,1.64-.04,2.44.07-1.22-1.32-2.77-2.48-4.62-2.65M37.51,8.1c.53-.32,1.08-.6,1.66-.81-.89-.34-1.89-.25-2.71.24-.75.48-.5,1.8-.6,2.64.37-.81.93-1.52,1.64-2.07"/>
    <path id="Path_44" class="st0" d="M62.46,1.71c.11.02.2.11.2.22.06,2.35.11,4.47.26,6.9.09,1.17.08,2.35-.03,3.52-.18,1.49.19,2.7.09,4.2-.14,1.98.15,3.6.04,5.58l-2.45.05c-.21,0-.39-.18-.36-.66s-.01-2.51-.01-4.04c.1-1.55.11-3.1.03-4.65-.08-.84.12-1.73.07-2.57-.09-1.53-.14-2.86-.17-4.39-.02-.9,0-2.29-.03-3.17-.02-.62.11-1.07.46-1.22.39-.18,1.46.17,1.9.23"/>
    <path id="Path_45" class="st0" d="M27.03,19.73c-.02.57-.04.77-.04.98,0,.14.13.17.24.23.08.04.74.18.95.23.21.04.43.07.65.07.64-.01,1.27.21,1.9.15.02,0,.04,0,.06-.02.17-.1.28-.28.28-.47.07-.54-.07-1.01,0-1.99s0-3.65.02-4.29c.04-4.85-.24-4.93-.11-8.68.05-1.05,0-2.1-.14-3.14-.11-.64-.15-1.29-.12-1.93.04-.2-.09-.39-.29-.44-.02,0-.04,0-.05,0-1.05-.05-3.26.11-3.26.11-.12.53-.16,1.07-.11,1.61.02.46-.07,1.21-.07,1.67,0,.52-.03,1.03-.01,1.55.06,1.38.1,2.77.06,4.16-.11,3.51.2,5.55.07,9l-.03,1.22Z"/>
  </g>
</svg>