<?xml version="1.0" encoding="UTF-8"?>
<svg id="Layer_1" xmlns="http://www.w3.org/2000/svg" version="1.1" viewBox="0 0 595.3 192.2">
  <!-- Generator: Adobe Illustrator 29.2.0, SVG Export Plug-In . SVG Version: 2.1.0 Build 108)  -->
  <defs>
    <style>
      .st0 {
        fill: #fff;
      }
    </style>
  </defs>
  <g>
    <path class="st0" d="M141.3,91.8V1h51.9v6.5h6.5v6.5h6.5v25.9h-6.5v6.5h-6.5v6.5h-6.5v6.5h6.5v13h6.5v13h6.5v6.5h-19.5v-13h-6.5v-13h-6.5v-13h-19.5v38.9h-13ZM154.3,39.9h32.4v-6.5h6.5v-13h-6.5v-6.5h-32.4v25.9Z"/>
    <path class="st0" d="M219.1,91.8V1h64.8v13h-51.9v25.9h45.4v13h-45.4v25.9h51.9v13h-64.8Z"/>
    <path class="st0" d="M297,91.8V1h13v13h6.5v13h6.5v6.5h6.5v6.5h6.5v6.5h6.5v6.5h6.5V1h13v90.8h-13v-13h-6.5v-13h-6.5v-6.5h-6.5v-6.5h-6.5v-6.5h-6.5v-6.5h-6.5v51.9h-13Z"/>
    <path class="st0" d="M439.6,78.8h-6.5v6.5h-6.5v6.5h-51.9V1h51.9v6.5h6.5v6.5h6.5v64.9ZM426.7,72.4V20.5h-6.5v-6.5h-32.4v64.9h32.4v-6.5h6.5Z"/>
    <path class="st0" d="M452.6,91.8V1h64.8v13h-51.9v25.9h45.4v13h-45.4v25.9h51.9v13h-64.8Z"/>
    <path class="st0" d="M530.4,91.8V1h51.9v6.5h6.5v6.5h6.5v25.9h-6.5v6.5h-6.5v6.5h-6.5v6.5h6.5v13h6.5v13h6.5v6.5h-19.5v-13h-6.5v-13h-6.5v-13h-19.5v38.9h-13ZM543.4,39.9h32.4v-6.5h6.5v-13h-6.5v-6.5h-32.4v25.9Z"/>
  </g>
  <path class="st0" d="M0,0h128.9v192.1H0V0ZM43.1,85.4h10.7v-10.7h10.7v-10.7h10.7v-10.7h10.7v-10.7h10.7v-21.4h-21.3v10.7h-10.7v10.7h-10.7v10.7h-10.7v10.7h-10.7v10.7h-10.7v10.7h-10.7v21.3h10.7v10.7h10.7v10.7h10.7v10.7h10.7v10.7h10.7v10.7h10.7v10.7h21.3v-21.3h-10.7v-10.7h-10.7v-10.7h-10.7v-10.7h-10.7v-10.7h-10.7v-21.3Z"/>
  <g>
    <path class="st0" d="M140.5,192.2v-90.8h51.9v6.5h6.5v6.5h6.5v25.9h-6.5v13h6.5v25.9h-6.5v6.5h-6.5v6.5h-51.9ZM153.4,114.4v25.9h32.4v-6.5h6.5v-13h-6.5v-6.5h-32.4ZM185.9,179.3v-6.5h6.5v-13h-6.5v-6.5h-32.4v25.9h32.4Z"/>
    <path class="st0" d="M224.8,114.4h-6.5v-13h13v13h6.5v13h6.5v13h13v-13h6.5v-13h6.5v-13h13v13h-6.5v13h-6.5v13h-6.5v13h-6.5v38.9h-13v-38.9h-6.5v-13h-6.5v-13h-6.5v-13Z"/>
    <path class="st0" d="M322,192.2v-77.8h-25.9v-13h64.9v13h-25.9v77.8h-13Z"/>
    <path class="st0" d="M373.9,192.2v-90.8h64.9v13h-51.9v25.9h45.4v13h-45.4v25.9h51.9v13h-64.9Z"/>
    <path class="st0" d="M477.7,192.2v-13h13v13h-13Z"/>
  </g>
</svg>